<svg width="100" height="100" viewBox="0 0 100 100" fill="none" xmlns="http://www.w3.org/2000/svg">
<path d="M39.2264 62.5537C38.6543 63.8941 38.4206 65.3547 38.5459 66.8067C38.7391 68.3573 39.2808 69.844 40.1301 71.1555C40.844 72.1813 41.6637 73.1293 42.5757 73.9838C45.9137 77.3859 49.8876 80.099 54.2716 81.9689C56.2504 82.8377 58.2947 83.5487 60.3854 84.0955C61.7145 84.457 63.0861 84.659 64.4152 84.9674C65.7443 85.2757 67.0946 85.6904 68.4556 86.0306C69.3062 86.222 69.2212 86.5623 68.4556 87.0939C67.9425 87.4183 67.3973 87.6891 66.8288 87.902C66.0704 88.2184 65.2664 88.4122 64.4471 88.4761C64.0643 88.4761 63.6709 88.4761 63.2881 88.4761L62.1504 88.3486C61.3955 88.2741 60.6512 88.1253 59.8963 88.0083C58.4037 87.7344 56.9271 87.3794 55.4731 86.945C52.583 85.9706 49.8201 84.6534 47.2434 83.0216C44.1918 81.0226 40.8106 79.13 38.1737 76.1741C36.6849 74.5382 35.4971 72.6521 34.665 70.6026C33.8201 68.4547 33.5632 66.1204 33.9207 63.8402L34.1014 62.777L34.4098 61.7881C34.5976 61.1175 34.8394 60.4632 35.1328 59.8317C35.7562 58.5382 36.6351 57.3844 37.7165 56.4399C39.2984 55.0808 41.1837 54.1217 43.2136 53.6435C45.1588 53.1554 47.1771 53.0292 49.1679 53.2713C52.1962 53.5405 55.1394 54.4156 57.8229 55.8444C58.4248 56.1273 59.0011 56.4617 59.5454 56.8439C61.555 58.3112 61.672 59.3532 61.3636 60.4059C61.305 60.648 61.2305 60.886 61.1403 61.1183C60.9596 61.4479 60.5981 61.5755 60.0771 61.5648C59.3961 61.5596 58.7272 61.3842 58.1313 61.0545C57.6103 60.7886 57.0148 60.6291 56.5257 60.3421C56.0275 60.069 55.5126 59.8275 54.984 59.619C54.4796 59.379 53.9612 59.1695 53.4316 58.9917C52.9 58.8322 52.3684 58.5877 51.8686 58.4813C49.8449 57.8831 47.7155 57.7308 45.6272 58.0348C44.2117 58.2396 42.8601 58.7592 41.6719 59.5553C41.5337 59.6616 41.3742 59.7466 41.2572 59.853L40.8957 60.1826C40.6619 60.3892 40.4515 60.621 40.2684 60.8737C40.0859 61.1084 39.9223 61.3573 39.7793 61.618C39.6304 61.9051 39.5028 62.2985 39.354 62.6281L39.2264 62.5537Z" fill="#1E1E1E"/>
<path d="M37.5782 52.9949C38.7753 52.1793 40.1071 51.5818 41.5123 51.2299C42.8578 50.9027 44.2451 50.7808 45.6271 50.8684C48.0821 51.0503 50.4879 51.6508 52.7404 52.644C54.8083 53.5442 56.7996 54.611 58.6947 55.8338L60.0025 56.6844L60.3002 56.9077L60.9063 57.3968C61.0509 57.5203 61.2037 57.634 61.3635 57.7371C61.5123 57.8221 61.6718 58.0029 61.8101 57.9391C61.8101 57.5457 61.7037 57.2054 61.6718 56.8758C61.6399 56.5462 61.5761 56.2698 61.523 55.9083C61.523 55.9083 61.3103 55.0045 61.1934 54.3559C61.0764 53.7073 60.9063 52.9524 60.8106 52.2294C60.7149 51.5063 60.6511 50.677 60.6511 49.9221C60.6511 49.518 60.6511 49.114 60.6511 48.7099C60.6472 48.2968 60.6792 47.8841 60.7468 47.4765C60.9333 45.7076 61.5784 44.018 62.6181 42.5749C62.8946 42.224 63.171 41.8519 63.4688 41.5116L64.447 40.6397C64.7752 40.3531 65.1314 40.1001 65.5102 39.8848C65.8824 39.6722 66.2333 39.4382 66.5735 39.2362C68.2266 38.4459 70.0709 38.1434 71.8898 38.3643C73.5753 38.6161 75.1779 39.2608 76.5682 40.2463C77.844 41.1286 78.9741 42.2048 79.9175 43.4361C81.5828 45.4965 82.8681 47.8367 83.7134 50.3474C84.4719 52.7927 84.9045 55.3274 84.9999 57.8859C84.8844 64.1719 83.503 70.3702 80.9383 76.1104C80.2046 77.8647 79.5666 77.3969 79.2051 75.6319C78.7717 72.9277 78.7038 70.1776 79.0031 67.4554C79.3678 64.6348 79.4355 61.7838 79.2051 58.9492C79.1307 58.2687 79.0669 57.5989 79.0244 56.929C78.9818 56.2591 78.8862 55.5999 78.7692 54.9513L78.5884 53.9837L78.3439 53.0374C78.2788 52.7413 78.1936 52.45 78.0887 52.1656C78.0095 51.8809 77.9063 51.6035 77.7804 51.3362C76.8596 49.0921 75.4333 47.0908 73.6123 45.4882C72.9195 44.8351 72.0756 44.3639 71.1562 44.1166C70.3181 43.9431 69.4458 44.0672 68.6894 44.4675C68.1464 44.7048 67.6577 45.0508 67.2536 45.4842C66.8494 45.9176 66.5384 46.4292 66.3396 46.9874C65.9306 48.4238 65.8759 49.9379 66.1801 51.4C66.2971 52.24 66.4991 53.1119 66.7117 53.9944L67.775 58.3219C67.9239 59.0555 68.1365 59.8424 68.2428 60.5441C68.3492 61.2459 68.4661 61.937 68.498 62.5537C68.5048 63.1073 68.4835 63.6609 68.4342 64.2124C68.3469 64.6094 68.2332 65.0001 68.094 65.382L67.7856 65.9136C67.7218 66.0093 67.7218 66.0944 67.6049 66.1901C67.4981 66.2546 67.3782 66.2946 67.254 66.307C66.8727 66.3544 66.487 66.3544 66.1057 66.307C64.9075 66.1512 63.7652 65.706 62.7776 65.0098C61.3529 64.0529 59.9174 62.9471 58.5246 62.022L57.4613 61.3416L56.7276 60.8737L55.4517 60.0869C53.7579 59.0731 51.9791 58.2086 50.1354 57.5032C48.4451 56.8201 46.642 56.4595 44.819 56.4399C43.8152 56.4475 42.8237 56.661 41.9057 57.0672C41.4499 57.2654 41.0182 57.5152 40.6191 57.8115L39.3007 58.8748C37.6299 60.3061 36.488 62.2568 36.0577 64.4144C35.441 67.5191 36.6106 71.0279 38.7903 73.8562C41.0406 76.7525 43.8871 79.1312 47.137 80.8313C52.1981 83.5532 57.8866 84.6165 63.5857 85.2332C64.8404 85.3608 66.0844 85.3927 67.3603 85.4884C72.0919 85.818 73.6123 86.222 74.6437 87.6149C74.9018 87.9167 75.1331 88.2405 75.3348 88.5825C75.8027 89.6458 73.7931 90.5921 70.0823 90.8685C64.3545 91.2116 58.6091 90.6227 53.07 89.1248C47.0313 87.5787 41.4661 84.5697 36.8658 80.3634C35.0551 78.6549 33.5072 76.6878 32.2725 74.5261C30.9273 72.1692 30.1381 69.5362 29.9652 66.828C29.8467 63.9485 30.5869 61.0987 32.0917 58.6409C32.7865 57.482 33.6183 56.411 34.5691 55.4511L35.2496 54.7493L35.9833 54.1326C36.5043 53.7286 36.8977 53.3458 37.5144 52.9205L37.5782 52.9949Z" fill="#1E1E1E"/>
<path d="M42.9264 30.1346C43.2986 30.1346 43.1603 30.6131 42.8307 31.5275C42.6524 31.9287 42.3957 32.2902 42.0758 32.5908C41.7944 32.6953 41.5018 32.7667 41.2039 32.8034C40.3102 32.5147 39.4394 32.1593 38.5989 31.7402C38.0544 31.4865 37.5551 31.1453 37.121 30.7301C36.2491 29.9539 35.3878 29.2415 34.5585 28.6035C34.3769 28.4493 34.2317 28.2569 34.1332 28.04C33.7672 27.3316 33.1815 26.7608 32.4639 26.4132C32.4072 26.3656 32.3386 26.3345 32.2655 26.3233C32.1923 26.312 32.1175 26.3211 32.0492 26.3494C31.2728 26.1502 30.5478 25.7878 29.9227 25.2861C29.593 24.6375 29.072 24.3717 28.6893 23.67C28.6255 23.5849 28.5191 23.6168 28.5298 23.351C28.5298 22.7556 28.3278 22.7449 28.1576 22.6173C27.8918 22.4469 27.6488 22.2432 27.4346 22.0113C27.3161 21.7886 27.2233 21.5532 27.1582 21.3095C27.1307 20.972 27.1969 20.6335 27.3495 20.3313C27.5409 20.1506 27.509 19.789 27.5516 19.4913C27.5516 19.3956 27.5516 19.268 27.6154 19.1936C28.002 18.9345 28.4248 18.7339 28.87 18.5982C29.3441 18.3943 29.8457 18.2618 30.3586 18.2048L30.9221 18.2579C31.1115 18.2691 31.2999 18.294 31.4857 18.3324C31.6922 18.3853 31.8947 18.4528 32.0917 18.5344C32.9423 18.8002 33.7398 19.2149 33.9312 19.268C34.1226 19.3212 34.2183 19.5339 34.3246 19.7146C34.4309 19.8954 34.9413 20.0655 35.5261 20.3845C35.9207 20.6061 36.3039 20.8475 36.6744 21.1075C37.0253 21.4903 37.5144 21.7136 37.5782 22.394C37.5782 22.5216 37.6739 22.5748 37.7483 22.6386C38.3535 23.2227 38.879 23.8841 39.3113 24.6056C39.5604 24.9311 39.8303 25.2401 40.1194 25.5307C40.1194 25.5839 40.1194 25.6795 40.1938 25.754C40.2144 25.8478 40.2503 25.9377 40.3001 26.0198C40.844 26.7533 41.4487 27.4398 42.1077 28.0719C42.2672 28.1889 42.6074 29.2096 42.8095 29.2947C43.0115 29.3797 42.7776 30.1559 42.9264 30.1346Z" fill="#1E1E1E"/>
<path d="M34.6755 44.4144C35.0795 44.4144 35.0263 44.9885 34.6755 45.8073C34.4843 46.1667 34.2155 46.479 33.8886 46.7217C33.6192 46.7913 33.3458 46.8446 33.0699 46.8812C32.9317 46.8812 31.2305 46.2538 30.635 46.1581C30.087 46.0368 29.5553 45.8512 29.0508 45.6052C28.0544 45.1748 27.0273 44.8194 25.9779 44.542C25.7403 44.4863 25.5185 44.3772 25.3293 44.223C24.644 43.7324 23.8224 43.4685 22.9795 43.4681C22.8413 43.4681 22.7031 43.4681 22.5329 43.585C22.0813 43.7183 21.6067 43.7545 21.1401 43.6914C20.6633 43.6895 20.1911 43.5994 19.7472 43.4255C19.0714 43.0084 18.3598 42.6526 17.6206 42.3623C17.5143 42.3623 17.3974 42.3623 17.3123 42.1496C17.0996 41.618 16.8551 41.6924 16.6105 41.6499C16.2625 41.5918 15.9254 41.4807 15.6111 41.3203C15.4409 41.2352 15.2815 40.9375 15.1113 40.7036C15.0109 40.3563 15.0109 39.9876 15.1113 39.6403C15.2602 39.3957 15.1113 39.0342 15.1113 38.7153C15.1113 38.6089 15.1113 38.4707 15.1113 38.3856C15.8065 37.7465 16.6092 37.2353 17.4824 36.8758H18.0141C18.3224 36.8758 18.7371 36.812 19.1624 36.7801C20.013 36.695 20.9168 36.6738 21.1082 36.6419C21.2996 36.61 21.4803 36.7482 21.6611 36.8439L23.0539 36.9609C23.7344 37.0353 24.4149 37.131 24.4681 37.1416C24.9678 37.3543 25.5314 37.3649 25.946 37.9497C26.0205 38.0773 26.1268 38.0879 26.2331 38.1198C27.1233 38.4222 27.9649 38.852 28.7318 39.3958C29.1358 39.6616 29.593 39.7998 29.9971 40.0443C30.0715 40.0443 30.114 40.1826 30.1778 40.2464C30.2485 40.3349 30.3308 40.4136 30.4224 40.4803C31.4112 40.9907 32.2299 41.7668 33.1869 42.2772C33.4208 42.4048 34.1226 43.4681 34.3565 43.6063C34.5904 43.7445 34.5053 44.4037 34.6755 44.4144Z" fill="#1E1E1E"/>
<path d="M64.2768 29.4435C64.5851 29.6881 64.2768 30.1028 63.6707 30.6557C63.3838 30.8844 63.0365 31.0248 62.6712 31.0597C62.3942 30.9515 62.1303 30.8124 61.8844 30.645C61.1917 29.7451 60.6064 28.7674 60.1407 27.7317C59.784 27.0062 59.5504 26.2265 59.4495 25.4244C59.227 23.8398 59.1522 22.2381 59.2262 20.6397C59.2252 20.2712 59.3088 19.9074 59.4708 19.5764C59.9283 18.5027 60.2843 17.3885 60.5341 16.2484C60.5766 16.153 60.5985 16.0498 60.5985 15.9453C60.5985 15.8409 60.5766 15.7377 60.5341 15.6423C60.2789 15.217 61.4378 12.3037 61.7568 12.0166C62.4905 11.2617 63.2454 10.5493 63.9897 9.89004C64.096 9.79434 64.1066 9.62422 64.3725 9.63485C64.5613 9.63945 64.7486 9.60061 64.9201 9.52134C65.0915 9.44207 65.2425 9.32448 65.3613 9.17765C65.6924 8.89472 66.0483 8.64207 66.4246 8.42272C66.6758 8.31801 66.9408 8.24998 67.2114 8.2207C67.4559 8.16754 67.8493 8.52905 67.8812 8.61411C67.9344 8.85867 68.2428 8.87993 68.4341 8.98626C68.5098 9.02035 68.5811 9.06317 68.6468 9.11385C68.7 9.11385 68.7319 9.82624 68.8488 10.5705C68.9658 11.3148 69.221 12.1123 69.104 12.1867C68.987 12.2611 68.2109 15.2276 68.1577 15.5466C68.1045 15.8656 67.945 15.8443 67.7962 15.9719C67.6473 16.0995 67.2539 18.3962 67.2327 18.4706C66.9987 18.9066 67.0732 19.4169 66.4777 19.7359C66.4334 19.765 66.3967 19.8043 66.3707 19.8506C66.3448 19.8969 66.3305 19.9487 66.3289 20.0017C66.2749 20.4091 66.1527 20.8045 65.9674 21.1713C65.776 21.5435 65.6165 21.9262 65.4357 22.309C65.3016 22.7037 65.202 23.1092 65.138 23.5211C65.138 23.5956 65.0423 23.67 64.9998 23.7444C64.9477 23.8244 64.915 23.9154 64.9041 24.0102C64.6792 24.9676 64.611 25.955 64.7021 26.9342C64.6893 27.2032 64.6502 27.4703 64.5851 27.7317C64.5437 28.0066 64.5437 28.2861 64.5851 28.561C64.5562 28.7224 64.4986 28.8772 64.415 29.0182C64.2768 29.2096 64.213 29.3904 64.2768 29.4435Z" fill="#1E1E1E"/>
</svg>
