<svg width="100" height="100" viewBox="0 0 100 100" fill="none" xmlns="http://www.w3.org/2000/svg">
<path d="M42.125 51.1771C42.125 51.1771 47.5208 52.8229 48.2292 55.8229C48.8958 58.625 43.8542 59.9167 43.8542 59.9167C43.8542 59.9167 52.6042 60.875 52.7188 57.4792C52.8333 54.0833 49.6563 50.7187 47.3646 50.8854C45.0729 51.0521 42.125 51.1771 42.125 51.1771Z" fill="#1E1E1E"/>
<path d="M43.0417 53.0521C41.2176 52.7495 39.3514 52.8133 37.5521 53.2396C35.8495 53.6287 34.2685 54.4299 32.948 55.5729L32.6355 55.8854L32.5001 56.0416C32.5001 56.0416 32.5001 56.0937 32.5001 56.125C32.417 56.2676 32.3473 56.4175 32.2917 56.5729C32.1389 57.0994 32.0206 57.6352 31.9376 58.1771C31.5699 60.7128 31.5139 63.284 31.7709 65.8333C32.0062 68.5652 32.4168 71.2791 33.0001 73.9583C33.5236 76.3528 34.2198 78.7061 35.0834 81C35.6251 82.4583 36.2709 83.8854 36.8855 85.2916L37.3438 86.3333L37.7084 87.5C37.9271 88.2396 38.1563 88.9687 38.4063 89.6875C38.698 90.5729 38.0938 90.9479 36.8542 90.7291C36.0842 90.5576 35.3459 90.2659 34.6667 89.8646C34.2501 89.6347 33.856 89.3661 33.4896 89.0625C33.2917 88.9062 33.1355 88.7291 32.9376 88.5729C32.7969 88.3723 32.6682 88.1636 32.5521 87.9479C31.0025 84.9171 29.7233 81.7556 28.7292 78.5C27.7565 75.2307 27.1281 71.8687 26.8542 68.4687C26.6876 66.3854 26.4376 64.3021 26.3126 62.1666C26.2498 61.0529 26.2498 59.9366 26.3126 58.8229C26.4109 57.5896 26.67 56.3744 27.0834 55.2083C27.3703 54.4615 27.7632 53.7598 28.2501 53.125L28.6771 52.6146L29.0521 52.2604C29.2941 52.0247 29.5517 51.8054 29.823 51.6042C30.8519 50.7956 31.9877 50.1331 33.198 49.6354C35.5002 48.7178 37.9492 48.2238 40.4271 48.1771C43.4383 48.0681 46.4307 48.6937 49.1459 50C50.4321 50.5772 51.5697 51.4401 52.4723 52.5231C53.3748 53.6062 54.0184 54.8808 54.3542 56.25C54.4112 56.5594 54.4426 56.8729 54.448 57.1875C54.448 57.5 54.3855 57.8125 54.3646 58.125C54.3438 58.4375 54.1251 58.7083 53.9896 58.9896L53.448 59.75L52.7605 60.3958C52.5176 60.5895 52.2599 60.7636 51.9896 60.9166C51.5422 61.1745 51.0756 61.3974 50.5938 61.5833C48.9655 62.1606 47.2656 62.5111 45.5417 62.625C44.7084 62.7291 43.8959 62.6979 43.0626 62.7292C42.2292 62.7604 41.4063 62.7291 40.5938 62.6146C39.7813 62.5 39.1667 62.5312 38.5105 62.3958C37.8542 62.2604 37.3021 62.1562 36.8542 62.0312C36.4869 61.9057 36.1369 61.7342 35.8126 61.5208C35.3449 61.2278 35.0032 60.771 34.8542 60.2396C34.7656 60.0238 34.6959 59.8007 34.6459 59.5729C34.5625 58.9062 35.7605 58.5312 37.6146 58.5312C40.297 58.7658 42.9948 58.7658 45.6771 58.5312C46.8637 58.431 48.0309 58.1682 49.1459 57.75C49.3751 57.6458 49.5626 57.5312 49.7709 57.4375C49.9792 57.3437 49.9063 57.3437 49.9167 57.3333C49.9167 57.4062 49.823 57.3333 49.9167 57.3333C49.886 57.2687 49.8512 57.206 49.8126 57.1458C49.7457 57.0308 49.6727 56.9196 49.5938 56.8125C49.4063 56.6042 49.2813 56.3541 49.0938 56.1354C48.6724 55.628 48.1689 55.1949 47.6042 54.8541C46.2248 53.9501 44.6638 53.3598 43.0313 53.125L43.0417 53.0521Z" fill="#1E1E1E"/>
<path d="M40.1043 18.25C40.2293 17.6979 40.3543 17.1562 40.5001 16.6041L40.6459 16.0312C40.6855 15.7848 40.7411 15.5412 40.8126 15.3021L41.2397 13.8542C41.4897 12.875 41.9063 12.0104 42.2188 11.1041L42.8543 9.96873L43.1668 9.40623L43.5105 8.95832C44.22 7.8831 45.2258 7.03647 46.4063 6.52082C46.9647 6.26581 47.5647 6.11406 48.1772 6.0729C48.5291 6.05195 48.8819 6.09428 49.2188 6.1979C49.5139 6.29828 49.7968 6.43103 50.0626 6.59373C50.7537 7.05409 51.3481 7.64502 51.8126 8.33332C52.389 9.24304 52.7982 10.2484 53.0209 11.3021C53.2706 12.4312 53.4411 13.5763 53.5313 14.7292C53.5313 15.3229 53.6147 15.9167 53.6355 16.5104C53.6563 17.1042 53.6355 17.7708 53.6355 18.0312C53.6355 19.4479 53.6355 20.8542 53.5209 22.2604C53.3751 25.0521 53.1668 27.8229 52.7813 30.5937C52.5001 33.0417 52.2084 35.5 51.9272 37.8854C51.6866 41.0677 50.8935 44.1837 49.5834 47.0937C49.1147 48 48.5418 47.6354 48.1043 46.6667C47.4687 45.3255 47.1412 43.8591 47.1459 42.375C47.198 41.6146 47.1459 40.8437 47.2501 40.0833L47.4272 37.8021L47.7188 33.1979C47.8126 31.6667 47.9063 30.0729 47.9897 28.5833C48.073 27.0937 48.2918 25.4583 48.4376 23.9583C48.6165 22.0883 48.6339 20.2063 48.4897 18.3333L48.4793 17.7083V17.2396L48.3543 16.2604C48.2937 15.8317 48.1447 15.4202 47.9168 15.0521C47.8638 14.9664 47.784 14.9007 47.6899 14.8649C47.5957 14.8291 47.4924 14.8253 47.3959 14.8542C47.2276 14.9124 47.0769 15.0128 46.9584 15.1458C46.4459 15.784 46.0636 16.5166 45.8334 17.3021C45.7735 17.445 45.7213 17.591 45.6772 17.7396L45.3959 18.6354C45.2188 19.25 45.0313 19.8542 44.8751 20.4792C44.5313 21.7187 44.2605 22.9896 44.0313 24.2604C43.2997 28.1178 42.8575 32.0245 42.7084 35.9479C42.6813 38.9385 42.8868 41.9267 43.323 44.8854C43.4063 45.5312 43.5522 46.1458 43.6251 46.7917C43.6996 47.6523 43.6469 48.5192 43.4688 49.3646C43.297 49.8822 42.9873 50.3432 42.573 50.6979C42.4068 50.8692 42.2293 51.0293 42.0418 51.1771C41.7397 51.375 41.4063 51.25 41.0001 50.8542C40.3803 50.3095 39.8954 49.6284 39.5834 48.8646C39.0527 47.5065 38.7025 46.0846 38.5418 44.6354C38.3334 43.1979 38.1668 41.7292 38.0834 40.2708C37.9238 37.3206 37.9516 34.3633 38.1668 31.4167C38.3265 29.2222 38.5661 27.0278 38.8855 24.8333C39.0522 23.7292 39.2397 22.6354 39.4376 21.5417C39.6355 20.4479 39.8022 19.3333 40.0209 18.2292L40.1043 18.25Z" fill="#1E1E1E"/>
<path d="M66.8751 24.0416C67.1355 23.1666 67.3647 22.2812 67.5626 21.4166C67.7605 20.5521 67.9897 19.7187 68.1251 18.8958V18.5937V18.4062C68.1297 18.3577 68.1297 18.3089 68.1251 18.2604C68.1364 18.1565 68.1364 18.0518 68.1251 17.9479C68.1358 17.7029 68.0742 17.4602 67.948 17.25C67.9094 17.1692 67.8424 17.1054 67.7598 17.0708C67.6772 17.0362 67.5847 17.0333 67.5001 17.0625C67.3599 17.1558 67.2276 17.2603 67.1043 17.375C66.9865 17.4681 66.8783 17.5728 66.7813 17.6875C66.7116 17.7539 66.6488 17.8272 66.5938 17.9062L66.5313 17.9791L66.4272 18.1666L66.198 18.5521C65.6043 19.5937 65.073 20.6354 64.4688 21.75C63.3022 23.9166 62.2293 26.1771 61.2501 28.4791C60.3855 30.5625 59.7293 32.6458 59.0209 34.7291C58.5938 36.0729 58.2293 37.4375 57.8334 38.7812L57.2293 40.7812C57.0522 41.4271 56.6772 42.0625 56.4793 42.6458C56.3438 43 56.1459 43.0312 55.8751 43.1041C55.6043 43.1771 55.2188 43.0312 54.8334 42.5729C54.3685 42.0065 53.9894 41.3747 53.7084 40.6979C53.4128 39.907 53.3232 39.0538 53.448 38.2187C53.6772 36.6979 53.9688 35.2083 54.3022 33.7396C54.5976 32.2629 55.0158 30.8134 55.5522 29.4062C56.6008 26.5691 57.8613 23.8148 59.323 21.1666C59.7709 20.375 60.198 19.5521 60.6147 18.7291L62.0105 16.25L62.5001 15.625C62.6876 15.3229 62.8647 15.0208 63.0834 14.7083C63.5001 14.0833 63.9376 13.5 64.3751 12.9375C65.1434 11.9308 66.169 11.1499 67.3438 10.6771C67.9666 10.4528 68.6481 10.4528 69.2709 10.6771C69.573 10.8333 69.8751 10.9791 70.1772 11.1458L70.9897 11.7187C71.9729 12.7414 72.6418 14.0249 72.9168 15.4166C73.081 16.1695 73.1648 16.9377 73.1668 17.7083C73.1957 18.0549 73.1957 18.4034 73.1668 18.75C73.1668 19.0312 73.1668 19.3229 73.1043 19.5833C73.0013 20.6377 72.8167 21.6825 72.5522 22.7083C71.8933 25.1582 71.0756 27.5626 70.1043 29.9062C68.698 33.4271 66.9793 36.7916 65.3543 40.125C64.073 42.7187 62.948 45.3333 61.6043 47.8958C61.3022 48.4583 61.0313 49.0312 60.6876 49.5833C60.2913 50.3562 59.725 51.0293 59.0313 51.5521C58.5232 51.7988 57.9451 51.8614 57.3959 51.7291C57.1528 51.6997 56.9125 51.651 56.6772 51.5833C56.3334 51.4479 56.1876 51.1041 56.1563 50.5416C56.0942 49.8508 56.2316 49.1567 56.5522 48.5416L59.7605 41.7291C60.8022 39.3958 61.8438 37.0208 62.8855 34.6354C64.4024 31.149 65.683 27.5645 66.7188 23.9062L66.8751 24.0416Z" fill="#1E1E1E"/>
<path d="M61.5834 71.875C59.5105 74.5123 57.2289 76.9785 54.7605 79.25C53.8864 80.1425 52.9463 80.9677 51.948 81.7187C50.9995 82.4147 49.9757 83.0018 48.8959 83.4687C48.2919 83.73 47.659 83.9189 47.0105 84.0312C46.2407 84.1743 45.4479 84.1314 44.698 83.9062L44.1043 83.6979C43.9272 83.6042 43.7501 83.4896 43.5834 83.3854C43.2358 83.1662 42.9261 82.8918 42.6668 82.5729C42.4106 82.2548 42.197 81.9046 42.0313 81.5312C41.901 81.1924 41.7965 80.8442 41.7188 80.4896C41.536 79.2425 41.6759 77.9693 42.1251 76.7917C42.7728 74.965 43.6702 73.2368 44.7918 71.6562C46.1138 69.6548 47.8076 67.9256 49.7814 66.5625C50.4064 66.1458 50.7189 66.6562 50.7084 67.5312C50.674 68.6523 50.3119 69.7387 49.6668 70.6562C49.3126 71.0937 49.0209 71.5625 48.698 72.0104C48.5314 72.2396 48.3855 72.4687 48.2501 72.6979L47.7709 73.3542C47.1916 74.2127 46.673 75.1108 46.2188 76.0417C45.769 76.8597 45.4459 77.7413 45.2605 78.6562C45.1891 78.9986 45.1611 79.3486 45.1772 79.6979C45.2293 79.9271 45.2293 80.125 45.323 80.2292C45.4168 80.3333 45.3751 80.3021 45.4168 80.3437C45.4296 80.3664 45.4476 80.3858 45.4693 80.4003C45.4911 80.4148 45.5159 80.4239 45.5418 80.4271C45.5418 80.4271 45.6043 80.4896 45.6772 80.4896C45.7462 80.4788 45.8165 80.4788 45.8855 80.4896C46.364 80.4331 46.8253 80.277 47.2397 80.0312C48.338 79.3789 49.3555 78.5992 50.2709 77.7083C52.4989 75.6321 54.503 73.3278 56.2501 70.8333C57.3628 69.2895 58.3853 67.6826 59.3126 66.0208C60.0001 64.7708 60.6876 63.5104 61.2397 62.2187C61.3855 61.8958 61.5001 61.5625 61.6251 61.2396C61.6876 61.0833 61.7501 60.9167 61.8022 60.75L61.9272 60.3646C62.063 59.9662 62.1538 59.5539 62.198 59.1354C62.2724 58.8473 62.2506 58.5428 62.1359 58.2682C62.0212 57.9937 61.8198 57.7641 61.5626 57.6146C61.0418 57.3333 60.3751 57.7292 60.0001 58.0208C59.8126 58.1667 59.6563 58.3646 59.5209 58.4687C59.4219 58.558 59.2987 58.6159 59.1668 58.6354C59.1668 58.6354 58.8959 58.6354 58.7709 58.6354C58.6186 58.651 58.465 58.651 58.3126 58.6354C58.0216 58.6074 57.7405 58.5148 57.4897 58.3646C57.2064 58.1547 56.9509 57.9097 56.7293 57.6354C56.5235 57.4083 56.342 57.1605 56.1876 56.8958C56.006 56.4362 55.9415 55.9386 56.0001 55.4479C55.9978 55.1616 56.0545 54.8779 56.1668 54.6146C56.226 54.4775 56.2957 54.3452 56.3751 54.2187L56.5001 54.0208L56.573 53.9167C56.573 53.8229 56.573 53.8229 56.573 53.8125L56.6563 53.7292C57.3625 53.1369 58.1034 52.5873 58.8751 52.0833C59.615 51.6087 60.4388 51.2798 61.3022 51.1146C61.6985 51.0545 62.0994 51.0301 62.5001 51.0417H63.1043L63.6772 51.1667C64.4746 51.3653 65.225 51.7193 65.8855 52.2083L66.7709 53.25C67.0504 53.5901 67.2849 53.9647 67.4688 54.3646C67.6459 54.7708 67.7501 55.2187 67.9064 55.6562C68.0626 56.0937 68.0314 56.6146 68.0939 57.0937C68.1564 57.5729 68.0938 58.1354 68.0418 58.6458C67.9736 59.1783 67.8622 59.7044 67.7084 60.2187C67.598 60.767 67.4483 61.3066 67.2605 61.8333L67.0522 62.4583C67.0001 62.6146 66.948 62.7708 66.8855 62.9167C65.5726 66.1488 63.8199 69.1844 61.6772 71.9375L61.5834 71.875Z" fill="#1E1E1E"/>
<path d="M66.875 75.4791C65.3932 77.4125 63.7818 79.2431 62.0521 80.9583C61.3958 81.5625 60.8229 82.2291 60.1146 82.7812C58.8638 83.7637 57.5367 84.645 56.1458 85.4166C55.4222 85.8182 54.6702 86.1663 53.8958 86.4583C53.0746 86.7881 52.2061 86.985 51.3229 87.0416C50.4491 87.0739 49.5826 86.8725 48.8125 86.4583C48.3727 86.2491 47.9853 85.944 47.6789 85.5655C47.3725 85.1869 47.1547 84.7445 47.0417 84.2708C46.9371 83.6377 47.0129 82.9879 47.2604 82.3958C47.4629 81.9013 47.7561 81.4491 48.125 81.0625C48.7192 80.3892 49.4237 79.822 50.2083 79.3854C50.6979 79.1354 50.9375 79.5312 50.9792 80.2291C51.0296 81.0625 50.9163 81.8976 50.6458 82.6875C50.5248 82.9543 50.4339 83.2338 50.375 83.5208C50.375 83.625 50.375 83.5208 50.375 83.5833C50.375 83.5833 50.3125 83.5833 50.5417 83.7083C50.887 83.901 51.291 83.9603 51.6771 83.875C51.988 83.8393 52.2928 83.7623 52.5833 83.6458C52.8958 83.4791 53.2188 83.3645 53.5417 83.1666C55.1601 82.112 56.5722 80.7706 57.7083 79.2083C59.0938 77.5312 60.5938 75.9062 61.875 74.0833C62.6739 72.9848 63.4078 71.8405 64.0729 70.6562C65.112 68.9645 65.8553 67.108 66.2708 65.1666C66.3958 64.5601 66.3266 63.9295 66.0729 63.3646C66.043 63.2753 65.9844 63.1983 65.9063 63.1458C65.8841 63.1281 65.8565 63.1184 65.8281 63.1184C65.7997 63.1184 65.7722 63.1281 65.75 63.1458L65.9792 62.9583L66.1042 62.8646C66.1771 62.8646 66.2708 62.6979 66.3125 62.6666C66.3563 62.6227 66.3947 62.5737 66.4271 62.5208C66.5313 62.375 66.4271 62.4062 66.4271 62.7083C66.4058 62.9126 66.4058 63.1186 66.4271 63.3229C66.4271 63.4583 66.4271 63.5937 66.4271 63.7291V63.8021L66.1979 63.8541C65.761 63.9698 65.3015 63.9698 64.8646 63.8541C64.4114 63.6386 64.0286 63.2991 63.7604 62.875C63.5938 62.6458 63.4167 62.4375 63.2813 62.2187C63.0696 61.8461 62.9993 61.4097 63.0833 60.9896C63.1523 60.4737 63.3819 59.9926 63.7396 59.6146C64.0733 59.2139 64.4627 58.8631 64.8958 58.5729C65.3334 58.288 65.8307 58.1078 66.3492 58.0464C66.8677 57.985 67.3934 58.0439 67.8854 58.2187C68.5704 58.4158 69.1988 58.7729 69.7188 59.2604C69.8368 59.3646 69.941 59.4687 70.0313 59.5729C70.125 59.6771 70.1875 59.7604 70.2604 59.8541L70.6667 60.4375C70.8922 60.8039 71.074 61.1954 71.2083 61.6041C71.3432 61.9397 71.441 62.289 71.5 62.6458C71.6979 63.8061 71.6767 64.9933 71.4375 66.1458C71.2609 67.0842 70.9994 68.0047 70.6563 68.8958C69.6724 71.2585 68.4062 73.4935 66.8854 75.5521L66.875 75.4791Z" fill="#1E1E1E"/>
</svg>
