<svg width="100" height="100" viewBox="0 0 100 100" fill="none" xmlns="http://www.w3.org/2000/svg">
<path d="M57.4584 77.4375C57.4584 77.4375 59.8646 90.6771 60.9792 90.9792C63.2292 91.4792 69.6146 89.0729 70.5209 87.9479C71.6667 86.4583 68.3438 74.0313 68.6251 73.9583C71.0313 72.9167 76.9584 68.9375 78.0001 66.5833C79.2917 63.6875 56.1251 34.8125 50.3542 34.2917C46.6251 33.9687 42.9167 74.2396 44.1667 77.9375C44.8959 80.0417 57.6771 77.2083 57.4584 77.4375Z" fill="#1E1E1E"/>
<path d="M22.1146 25.4792C21.7917 25.5729 21.7708 25.0833 21.8958 24.2812C21.9803 23.9078 22.1359 23.5541 22.3542 23.2396C22.5628 23.1037 22.7823 22.9852 23.0104 22.8854C23.1354 22.8333 24.7396 23.0208 25.3229 23.0625C25.8558 23.1113 26.3769 23.2486 26.8646 23.4687C27.8721 23.8481 28.8475 24.3079 29.7813 24.8437C29.9875 24.9764 30.1676 25.1459 30.3125 25.3437C30.8116 26.0077 31.443 26.561 32.1667 26.9687C32.2917 27.0312 32.375 27.1458 32.5833 27.1042C32.7917 27.0625 34.6667 28.5104 34.7708 28.8229C35.0729 29.625 35.3333 30.3021 35.6042 31.0312C35.6042 31.1354 35.75 31.1875 35.6667 31.375C35.4792 31.8125 35.6667 31.9375 35.7708 32.1354C35.9061 32.4295 35.9973 32.7419 36.0417 33.0625C36.0314 33.2759 35.9892 33.4865 35.9167 33.6875C35.9167 33.875 35.4271 34.1042 35.3542 34.1042C35.2813 34.1042 35.0104 34.3125 34.8438 34.4375C34.7897 34.4888 34.7304 34.5342 34.6667 34.5729C33.9605 34.4549 33.2641 34.2843 32.5833 34.0625L32.2813 33.8542L31.6042 33.4167C31.0833 33.1354 30.5625 32.8229 30.4583 32.7604C30.3542 32.6979 30.3229 32.5417 30.2708 32.4062C30.2188 32.2708 28.7396 31.4792 28.6875 31.4375C28.4375 31.1875 28.0625 31.0937 28.0104 30.5729C28.0104 30.4687 27.9271 30.4375 27.8646 30.4062C27.3429 30.041 26.858 29.6258 26.4167 29.1667C26.1667 28.9687 25.8958 28.8021 25.6354 28.6146C25.5912 28.5656 25.5559 28.5091 25.5313 28.4479C25.4975 28.3722 25.4478 28.3046 25.3854 28.25C24.7747 27.8 24.1225 27.4093 23.4375 27.0833C23.2708 27.0312 22.6979 26.25 22.4792 26.1979C22.2604 26.1458 22.25 25.4479 22.1146 25.4792Z" fill="#1E1E1E"/>
<path d="M44.0625 10.125C43.7709 10.0104 44.125 9.66665 44.7917 9.14581C45.107 8.91941 45.4595 8.75017 45.8334 8.64581C46.0918 8.66962 46.3469 8.72203 46.5938 8.80206C46.7292 8.85415 47.7917 10.0104 48.198 10.3958C48.5473 10.742 48.8081 11.1671 48.9584 11.6354C49.2917 12.5416 49.6563 13.4166 49.948 14.3229C50.0177 14.5271 50.0356 14.7455 50 14.9583C49.9195 15.6905 50.0345 16.4309 50.3334 17.1041C50.3334 17.2187 50.3334 17.3437 50.573 17.4166C51.0346 18.1234 51.284 18.9476 51.2917 19.7916C51.0625 20.4896 50.7709 21.1771 50.5313 21.875C50.5313 21.9791 50.5313 22.0625 50.3646 22.1666C49.9167 22.4062 50 22.5937 49.948 22.8021C49.8162 23.0983 49.6557 23.3809 49.4688 23.6458C49.3082 23.7649 49.1374 23.8695 48.9584 23.9583C48.7502 24.0367 48.5207 24.0367 48.3125 23.9583C48.1667 23.8437 47.9375 23.9583 47.75 23.9583C47.6842 23.9635 47.618 23.9635 47.5521 23.9583C47.4896 23.9583 47.1459 23.6041 46.698 23.2708C46.359 23.082 46.0614 22.8269 45.823 22.5208C45.7814 22.4101 45.7327 22.3023 45.6771 22.1979L45.3542 21.5104C45.2206 21.2807 45.0989 21.0443 44.9896 20.8021C44.9499 20.6555 44.8976 20.5126 44.8334 20.375C44.7709 20.2604 44.8334 20.125 44.9271 20C45.0209 19.875 44.3542 18.3958 44.3438 18.3333C44.3438 17.9896 44.1355 17.6875 44.4688 17.2916C44.4894 17.2608 44.5004 17.2246 44.5004 17.1875C44.5004 17.1504 44.4894 17.1141 44.4688 17.0833C44.3463 16.4979 44.2973 15.8996 44.323 15.3021C44.278 15.006 44.2119 14.7136 44.125 14.4271C44.125 14.4271 44.125 14.3021 44.125 14.2396C44.1445 14.1679 44.1445 14.0924 44.125 14.0208C44.0158 13.3128 43.845 12.6158 43.6146 11.9375C43.6146 11.7916 43.7813 10.8958 43.6771 10.75C43.573 10.6041 44.1771 10.1771 44.0625 10.125Z" fill="#1E1E1E"/>
<path d="M61.0209 25.2292C61.1771 25.5729 60.6146 25.625 59.6563 25.5729C59.2153 25.52 58.7879 25.3858 58.3959 25.1771C58.2022 24.9589 58.0311 24.7216 57.8855 24.4687C57.8021 24.3125 57.8855 22.4896 57.8021 21.8542C57.7862 21.2703 57.8743 20.6883 58.0625 20.1354C58.3636 19.0307 58.7502 17.951 59.2188 16.9063C59.3235 16.6723 59.4761 16.463 59.6667 16.2917C60.3021 15.6738 60.7807 14.9131 61.0625 14.0729C61.1146 13.9375 61.2084 13.8229 61.0625 13.6146C61.2606 12.6379 61.6972 11.7254 62.3334 10.9583C63.0417 10.4688 63.6355 9.91667 64.3125 9.4375C64.4063 9.36459 64.4063 9.22917 64.6563 9.27083C64.8052 9.32415 64.9684 9.32189 65.1157 9.26447C65.2631 9.20705 65.3848 9.09834 65.4584 8.95834C65.7151 8.69083 66.0234 8.4782 66.3646 8.33334C66.6255 8.27699 66.8954 8.27699 67.1563 8.33334C67.4167 8.33334 67.9584 8.94792 67.9896 9.04167C68.0938 9.3125 68.448 9.46875 68.698 9.67708L68.9688 9.89583C69.0532 10.2858 69.0916 10.6844 69.0834 11.0833C69.137 11.4739 69.137 11.8699 69.0834 12.2604L68.9063 12.625L68.5417 13.4063C68.2917 14.0104 68.0313 14.6354 68 14.7813C67.9688 14.9271 67.7917 15 67.6563 15.0833C67.5209 15.1667 66.9584 17.0208 66.9167 17.0938C66.6771 17.4271 66.6355 17.8646 66.0521 18.0312C65.9375 18.0312 65.9271 18.1458 65.8959 18.2188C65.5802 18.8679 65.1923 19.4794 64.7396 20.0417C64.5584 20.3555 64.4017 20.6829 64.2709 21.0208C64.2709 21.0833 64.1563 21.1146 64.0938 21.1667C64.0313 21.2187 63.9375 21.2813 63.9063 21.3542C63.4297 22.0751 63.0283 22.843 62.7084 23.6458C62.6459 23.8333 61.8125 24.5208 61.7813 24.75C61.75 24.9792 60.9584 25.0937 61.0209 25.2292Z" fill="#1E1E1E"/>
</svg>
