<svg width="100" height="100" viewBox="0 0 100 100" fill="none" xmlns="http://www.w3.org/2000/svg">
<path d="M73.1771 65.8854C71.3801 66.7757 69.6405 67.7776 67.9688 68.8854C67.375 69.3125 66.8334 69.7813 66.2605 70.2188C64.2033 71.7022 62.3839 73.49 60.8646 75.5208C60.2478 76.4379 59.7475 77.4282 59.375 78.4688C59.0938 79.125 58.9896 79.8229 58.7084 80.4792C58.5938 80.8229 58.4688 81.1563 58.3438 81.5208C58.2188 81.8854 58.125 82.2188 57.9896 82.5625C57.8542 82.9063 57.5209 82.9167 57.1771 82.4792C56.6958 81.8324 56.4396 81.0458 56.4479 80.2396C56.4732 79.4023 56.6497 78.5766 56.9688 77.8021L57.4271 76.6458L57.9896 75.5313C58.7881 74.0952 59.7957 72.7857 60.9792 71.6458C62.3646 70.2917 63.698 68.8333 65.2188 67.6146C66.8853 66.3125 68.6242 65.1057 70.4271 64C71.4688 63.3125 72.6355 62.6771 73.75 62.0313C75.4167 60.9896 77.1667 60.2083 78.7813 59.1979C79.9777 58.3996 81.1223 57.5263 82.2084 56.5833L82.8542 55.9792C83.6771 55.2813 83.8959 55.2396 84.75 55.5625C84.9375 55.6354 85.1355 55.6875 85.3125 55.7708C85.4582 55.83 85.5832 55.9307 85.6721 56.0603C85.761 56.1899 85.8098 56.3428 85.8125 56.5C85.8181 56.9485 85.6712 57.3855 85.3959 57.7396C84.5114 58.9274 83.4587 59.9801 82.2709 60.8646C81.1158 61.6724 79.9198 62.4199 78.6875 63.1042C76.9063 64.1458 75.0521 65.0208 73.2709 66L73.1771 65.8854Z" fill="#F2E8E4"/>
<path d="M82.4479 29.9167C82.2604 29.6563 82.0833 29.3958 81.8854 29.1458L81.2499 28.4479L79.927 27.0833L78.4583 25.8125L77.7291 25.1667L76.9374 24.5938L75.3333 23.4479C74.7812 23.0938 74.1979 22.7813 73.6249 22.4063C72.4776 21.7293 71.2876 21.1273 70.0624 20.6042C65.0267 18.5298 59.6776 17.3184 54.2395 17.0208C50.2516 16.8466 46.2568 17.1297 42.3333 17.8646C35.3558 19.0875 28.6979 21.7096 22.7604 25.5729C19.8555 27.4769 17.2802 29.8411 15.1354 32.5729C13.0439 35.2576 11.6162 38.3985 10.9687 41.7396C10.4277 44.6374 10.7539 47.6304 11.9062 50.3438C13.0733 53.1788 14.7783 55.761 16.927 57.9479C21.1457 62.2742 26.3656 65.4942 32.1249 67.3229C33.0833 67.6042 34.052 67.9063 35.0312 68.1771C36.0195 68.4407 37.0209 68.6528 38.0312 68.8125C40.552 69.1667 40.2916 69.4479 38.0312 70.0417C36.4372 70.4149 34.8123 70.6415 33.177 70.7188C30.8177 70.7358 28.4735 70.3409 26.2499 69.5521C24.0541 68.7882 21.9339 67.8223 19.9166 66.6667C18.8749 66.0938 17.9166 65.4583 16.9583 64.7917C16.0079 64.0776 15.0968 63.3126 14.2291 62.5C10.5463 59.2669 7.74971 55.1473 6.10411 50.5313C5.27123 48.0524 4.96608 45.4267 5.20828 42.8229C5.35696 41.5598 5.60071 40.3098 5.93744 39.0833L6.15619 38.1875L6.47911 37.3125L7.13536 35.5833C9.08726 31.1649 12.0871 27.2891 15.8749 24.2917C20.2136 20.8004 25.0433 17.9678 30.2083 15.8854C32.7833 14.8419 35.4202 13.9583 38.1041 13.2396L40.1874 12.75L42.2708 12.375C43.6354 12.0938 45.0312 11.9896 46.4374 11.8229C52.5076 11.3078 58.6211 11.7542 64.552 13.1458C67.5199 13.8602 70.4144 14.8507 73.1979 16.1042C76.0174 17.3414 78.6901 18.8891 81.1666 20.7188C84.2105 23.036 86.8382 25.854 88.9374 29.0521C91.0974 32.2791 92.52 35.9423 93.1041 39.7813C93.5897 42.731 93.4585 45.7494 92.7187 48.6458C91.9056 51.5614 90.4818 54.2706 88.5416 56.5938C84.7708 61.1667 79.8541 64.0833 75.3645 66.9375C72.0806 68.8995 69.0687 71.2845 66.4062 74.0313C65.1986 75.3274 64.1941 76.799 63.427 78.3958C63.2708 78.7917 63.0624 79.1667 62.9374 79.5729L62.8124 79.9687C62.7499 80.1458 62.6874 80.3125 62.6354 80.5104C62.5055 80.9119 62.4285 81.3286 62.4062 81.75L62.3124 83.1146V83.8125V84.6458C62.3124 85.7917 62.3124 86.9167 62.4583 88.0938L61.6041 88.2604C61.5686 88.2596 61.5334 88.2666 61.501 88.281C61.4686 88.2954 61.4397 88.3168 61.4166 88.3438L61.302 88.4479L61.0729 88.6458L60.9583 88.7396C60.9583 88.7396 60.8854 88.7396 60.802 88.7396L60.5937 88.6771C60.302 88.5938 60.0937 88.4896 59.8437 88.4063C58.874 88.0462 57.948 87.578 57.0833 87.0104C56.6184 86.672 56.1765 86.3031 55.7604 85.9063C55.3229 85.5208 54.9166 85.0625 54.5208 84.6771C53.7499 83.8333 53.0416 83.0313 52.4374 82.2604L52.0208 81.7292L51.7708 81.3958L51.3229 80.75C51.0416 80.3437 50.8124 79.9583 50.6145 79.6042C50.2789 79.0155 50.0331 78.38 49.8854 77.7188C49.7862 77.1781 49.7862 76.624 49.8854 76.0833C49.9251 75.6121 50.0052 75.1451 50.1249 74.6875C50.3645 74.0521 51.1666 74.1667 52.2812 74.8542C52.9628 75.2754 53.5952 75.7716 54.1666 76.3333C54.5208 76.6563 54.8749 77.0208 55.2083 77.375L55.7812 77.9896L56.0833 78.3125L56.1874 78.4062C56.5182 78.71 56.8899 78.966 57.2916 79.1667C57.4166 79.1667 57.552 79.2708 57.6562 79.1667C57.7604 79.0625 57.5729 78.6875 57.552 78.4792C57.5312 78.2708 57.552 78.2083 57.552 78.1042V77.9479C57.552 77.8542 57.552 77.9479 57.552 77.6979C58.1202 76.0064 58.9119 74.3984 59.9062 72.9167C61.7774 70.1941 64.0577 67.7767 66.6666 65.75C69.1562 63.7292 71.7291 62.0521 74.1562 60.4063C76.5833 58.7604 78.9166 57.2292 80.8854 55.5417C82.7406 54.056 84.293 52.2277 85.4583 50.1563C85.9964 49.1649 86.4226 48.1168 86.7291 47.0313C87.0275 45.9303 87.1884 44.7967 87.2083 43.6563C87.2579 41.229 86.8588 38.8135 86.0312 36.5313C85.6202 35.3581 85.0823 34.2334 84.427 33.1771C84.0937 32.6354 83.802 32.0729 83.4583 31.5417L82.302 30.0208L82.4479 29.9167Z" fill="#F2E8E4"/>
<path d="M55.9375 44.1042C56.0791 44.9492 55.9743 45.8172 55.6354 46.6042C55.5065 46.9485 55.3388 47.277 55.1354 47.5833C55.0208 47.7396 54.9479 47.8854 54.8125 48.0417C54.6771 48.1979 54.5104 48.375 54.3542 48.5208C54.1204 48.7634 53.8581 48.9768 53.5729 49.1562C53.2889 49.3685 52.9555 49.5047 52.6042 49.5521C52.117 49.6361 51.6178 49.6213 51.1365 49.5086C50.6551 49.3959 50.2013 49.1875 49.8021 48.8958C49.207 48.4713 48.6979 47.9375 48.3021 47.3229C47.9193 46.8135 47.6106 46.2524 47.3854 45.6563C47.3141 45.441 47.255 45.2219 47.2083 45C47.2083 44.7604 47.2083 44.5104 47.2083 44.2604C47.2398 44.0314 47.2885 43.805 47.3542 43.5833C47.4729 43.3721 47.6454 43.196 47.8542 43.0729C48.1146 42.8854 48.6979 43.3958 49.3229 43.8854C49.7222 44.2303 50.186 44.4923 50.6875 44.6563C50.7917 44.5208 50.9479 44.4583 50.9792 44.6563C51.0104 44.8542 51.1354 45.1458 51.2396 45.4688C51.2552 45.5346 51.2887 45.5948 51.3366 45.6426C51.3844 45.6904 51.4446 45.724 51.5104 45.7396C51.5004 45.8226 51.5004 45.9066 51.5104 45.9896C51.5016 46.0237 51.5016 46.0596 51.5104 46.0938C51.5059 46.1143 51.5059 46.1357 51.5104 46.1563L51.4583 46.0938C51.4583 46.0938 51.3542 45.8333 51.3646 45.8333C51.3595 45.8058 51.3595 45.7775 51.3646 45.75L51.4479 45.6667L51.5 45.5417C51.5 45.4583 51.6042 45.3646 51.5937 45.3333C51.5833 45.3021 51.6979 45.2083 51.6667 45.0833C51.5591 44.9434 51.4134 44.8375 51.2471 44.7784C51.0808 44.7193 50.9009 44.7094 50.7292 44.75C50.6609 44.7865 50.5978 44.8321 50.5417 44.8854C50.5125 44.9387 50.4881 44.9945 50.4687 45.0521C50.455 45.0123 50.4376 44.974 50.4167 44.9375C50.3596 44.8415 50.2895 44.7538 50.2083 44.6771C50.183 44.6196 50.1436 44.5695 50.0937 44.5313C50.0937 44.5313 49.9271 44.4375 49.9688 44.4479H50.0521C50.1403 44.4752 50.2347 44.4752 50.3229 44.4479C50.4656 44.4306 50.6056 44.3957 50.7396 44.3438H50.6667L50.4271 44.4583C50.25 44.5521 50.0417 44.6667 49.7917 44.8229C49.5417 44.9792 49.3333 45.1146 49.1146 45.2604C48.3854 45.7813 47.5625 45.9375 46.9583 45.2604C46.7555 44.877 46.6215 44.461 46.5625 44.0313C46.5651 43.5097 46.6677 42.9934 46.8646 42.5104C47.0775 42.0879 47.3552 41.7013 47.6875 41.3646C47.9602 41.0917 48.2686 40.8569 48.6042 40.6667C49.6636 40.0747 50.914 39.9249 52.0833 40.25C52.9497 40.4345 53.7578 40.8278 54.4375 41.3958C55.255 42.0868 55.8224 43.0275 56.0521 44.0729L55.9375 44.1042Z" fill="#F2E8E4"/>
<path d="M37.5 46.3854C37.8057 47.4144 37.7505 48.517 37.3437 49.5104C36.9393 50.4479 36.3009 51.2657 35.4896 51.8854C34.9728 52.3555 34.3621 52.7105 33.6979 52.9271C33.4116 52.9959 33.117 53.024 32.8229 53.0104C32.5146 53.015 32.2079 52.9656 31.9166 52.8646C31.2717 52.6933 30.6941 52.33 30.2604 51.8229C29.5941 51.0715 29.1441 50.1535 28.9583 49.1667C28.8099 48.3981 28.7748 47.612 28.8541 46.8333C28.8619 46.3078 29.0062 45.7934 29.2729 45.3405C29.5395 44.8876 29.9193 44.5118 30.375 44.25C30.6771 44.1042 30.9791 44.5729 31.3021 45.1354C31.4687 45.4063 31.6458 45.6979 31.8125 45.9271C31.9465 46.0952 32.0684 46.2728 32.1771 46.4583C32.3028 46.8256 32.4743 47.1756 32.6875 47.5C32.6875 47.5833 32.7916 47.6562 32.7812 47.75C32.7757 47.8402 32.7757 47.9306 32.7812 48.0208C32.776 48.111 32.776 48.2015 32.7812 48.2917V48.5521C32.7686 48.6174 32.7686 48.6846 32.7812 48.75C32.7502 48.7857 32.7287 48.8287 32.7187 48.875C32.6967 48.9254 32.6793 48.9777 32.6666 49.0312C32.8229 48.5208 32.6666 48.8958 32.7396 48.7813C32.7396 48.7813 32.8229 48.7813 32.9062 48.7813L33.125 48.7083C33.3216 48.6426 33.4975 48.5262 33.6347 48.3707C33.7718 48.2152 33.8655 48.0262 33.9062 47.8229C33.914 47.6638 33.8852 47.5049 33.822 47.3587C33.7588 47.2124 33.6629 47.0825 33.5416 46.9792C33.3484 46.7821 33.1092 46.636 32.8456 46.5542C32.5819 46.4724 32.3021 46.4574 32.0312 46.5104C31.9345 46.5417 31.8483 46.5992 31.7821 46.6764C31.7159 46.7536 31.6724 46.8475 31.6562 46.9479V47.0521H31.5833L31.7291 47.1146C31.8229 47.1146 31.8333 47.1146 31.8646 47.2188C31.8958 47.3229 31.9687 47.3229 31.9687 47.375C31.9888 47.4394 31.9888 47.5085 31.9687 47.5729C31.8924 47.6566 31.8087 47.7333 31.7187 47.8021C31.4112 48.0119 31.0831 48.1899 30.7396 48.3333L30.125 48.625C29.802 48.7847 29.4384 48.8432 29.0816 48.793C28.7248 48.7429 28.3914 48.5863 28.125 48.3437C27.7434 47.8234 27.5159 47.2061 27.4687 46.5625C27.4341 46.1378 27.4946 45.7108 27.6458 45.3125C27.7763 44.92 27.9622 44.5482 28.1979 44.2083C28.6346 43.6368 29.2023 43.1786 29.8531 42.8722C30.5038 42.5658 31.2187 42.4203 31.9375 42.4479C33.1509 42.472 34.3337 42.8326 35.3541 43.4896C36.368 44.1457 37.1398 45.115 37.5521 46.25L37.5 46.3854Z" fill="#F2E8E4"/>
<path d="M30.5521 49.1667C30.6315 48.9063 30.6976 48.6421 30.75 48.375C30.75 48.2812 30.6771 48.2396 30.75 48.1458C30.8625 47.8039 30.9564 47.4562 31.0313 47.1042C31.0332 47.0406 31.0188 46.9777 30.9897 46.9212C30.9605 46.8647 30.9175 46.8165 30.8646 46.7813C30.7292 46.6771 30.448 46.6667 30.7292 46.3438C31.0105 46.0208 33.9584 44.5729 34.1459 44.7917C34.3029 44.9692 34.3946 45.195 34.406 45.4317C34.4173 45.6685 34.3476 45.902 34.2084 46.0938C34.0209 46.4271 34.2813 46.5729 34.3125 46.8125C34.3282 47.0727 34.3282 47.3336 34.3125 47.5937C34.3019 47.7498 34.3019 47.9064 34.3125 48.0625C34.3125 48.2917 34.3125 48.5417 34.4167 48.7188C34.5209 48.8958 34.823 48.9167 35.0417 49C35.0938 49 35.1771 49 35.2084 49C35.2396 49 35.2084 49.1042 35 49.2292L34.6146 49.4167L33.9896 49.6979L33.448 49.9375C32.8927 50.1917 32.3086 50.3771 31.7084 50.4896C30.8959 50.4896 30.6667 50.1979 30.5 49.9063C30.4306 49.6697 30.4128 49.4211 30.448 49.1771L30.5521 49.1667Z" fill="#F2E8E4"/>
<path d="M72.6978 42.7083C72.4739 43.4744 72.0905 44.1844 71.5727 44.7917C71.2766 45.1422 70.9247 45.4413 70.5311 45.6771C70.3227 45.8021 70.1248 45.9167 69.9165 46.0208C69.7063 46.1025 69.4905 46.1686 69.2707 46.2188C68.6975 46.4096 68.0897 46.4736 67.4894 46.4063C67.1945 46.3435 66.9053 46.2564 66.6248 46.1458C66.3791 46.024 66.1424 45.8848 65.9165 45.7292C65.5526 45.4319 65.2364 45.0806 64.979 44.6875C64.5716 44.0511 64.2856 43.3447 64.1353 42.6042C63.9342 41.9684 63.8773 41.2959 63.9686 40.6354C63.9841 40.41 63.9841 40.1838 63.9686 39.9583C64.0278 39.7459 64.123 39.5451 64.2498 39.3646C64.5519 39.0313 64.7811 38.6667 65.3644 38.6979C65.6285 38.7547 65.8643 38.9021 66.0311 39.1146L66.4478 39.5625L66.8123 39.9792C67.157 40.3847 67.5608 40.7358 68.0103 41.0208C67.9109 41.2535 67.8307 41.4939 67.7707 41.7396C67.6977 41.9688 67.7707 42.0104 67.7707 42.0625C67.6882 42.1952 67.6251 42.3391 67.5832 42.4896C67.5832 42.4896 67.5832 42.5417 67.5832 42.5729C67.5832 42.3125 67.5207 43.1771 67.5832 41.9792C67.5857 42.0208 67.5857 42.0625 67.5832 42.1042C67.5752 42.1384 67.5752 42.1741 67.5832 42.2083C67.5832 42.2083 67.6561 42.1354 67.729 42.0938C67.8785 41.8865 67.9653 41.6406 67.979 41.3854C67.979 40.9688 67.979 40.4583 67.7082 40.3438C67.4373 40.2292 67.4478 40.6354 67.4269 40.875C67.4269 40.875 67.4269 41.0208 67.4269 40.9792C67.4269 40.9375 67.2394 40.9063 67.0727 40.6771C66.9061 40.4479 66.6978 40.1458 66.3957 39.6979L65.9894 39.1042C65.7586 38.815 65.609 38.4696 65.5559 38.1035C65.5028 37.7373 65.5482 37.3636 65.6873 37.0208C65.8038 36.7855 65.9627 36.5736 66.1561 36.3958C66.3838 36.2255 66.6369 36.0919 66.9061 36C67.0415 36 67.1665 35.8958 67.3123 35.8646C67.4823 35.8539 67.6528 35.8539 67.8228 35.8646C68.1687 35.8224 68.5185 35.8224 68.8644 35.8646C69.5258 36.0185 70.1467 36.3119 70.6856 36.7251C71.2245 37.1382 71.669 37.6617 71.9894 38.2604C72.8192 39.5845 73.1135 41.175 72.8123 42.7083H72.6978Z" fill="#F2E8E4"/>
</svg>
