<svg width="100" height="100" viewBox="0 0 100 100" fill="none" xmlns="http://www.w3.org/2000/svg">
<path d="M28.7604 78.4167C28.3958 77.375 28.0313 76.4271 27.7188 75.375C27.542 74.828 27.3959 74.2716 27.2813 73.7083C27.2813 73.5625 27.2188 73.3646 27.1875 73.1875V72.5833C27.1919 72.1902 27.2408 71.7988 27.3333 71.4167C27.5346 70.4458 27.9551 69.5337 28.5625 68.75C29.535 67.6496 30.6611 66.6953 31.9062 65.9167C33.0625 65.1458 34.2604 64.4896 35.4479 63.8333C36.6354 63.1771 37.5312 62.6875 38.5729 62.1771C39.8828 61.4314 41.2832 60.8573 42.7396 60.4688C43.2083 60.3646 43.3333 60.8333 43.1771 61.4479C42.9833 62.2067 42.5253 62.8715 41.8854 63.3229C40.6042 64.0938 39.375 64.9271 38.1042 65.6563L34.2708 67.7396C32.8327 68.5779 31.6206 69.7542 30.7396 71.1667C30.5457 71.4492 30.4012 71.7627 30.3125 72.0938C30.234 72.4048 30.234 72.7306 30.3125 73.0417C30.5349 73.9913 30.8132 74.9269 31.1458 75.8437C31.5596 77.0162 32.0324 78.167 32.5625 79.2917C33.3137 81.0129 34.2202 82.6621 35.2708 84.2188C36.0803 85.3276 37.0738 86.2894 38.2083 87.0625C38.4375 87.2083 38.6771 87.3229 38.875 87.4271C39.2708 87.6354 39.4271 87.7604 39.5 88C39.5916 88.3409 39.6509 88.6897 39.6771 89.0417C39.6771 89.2396 39.7708 89.4375 39.8021 89.6146C39.8352 89.7786 39.8181 89.9489 39.753 90.1031C39.688 90.2573 39.5781 90.3883 39.4375 90.4792C39.2497 90.6556 39.007 90.7623 38.75 90.7813C38.451 90.8427 38.1427 90.8427 37.8438 90.7813C36.2812 90.2272 34.901 89.2543 33.8542 87.9687C32.8847 86.8382 32.0364 85.6093 31.3229 84.3021C30.2821 82.4124 29.3737 80.4529 28.6042 78.4375L28.7604 78.4167Z" fill="#F2E8E4"/>
<path d="M61.7291 44.9583C62.3501 47.0165 63.4826 48.8836 65.0208 50.3854C65.3229 50.6667 65.625 50.9271 65.9375 51.1771C66.25 51.4271 66.625 51.6146 66.9791 51.8542C69.0625 53.5417 72.0521 54.0312 75.0729 53.9375C76.4134 53.8504 77.73 53.5406 78.9687 53.0208C79.7374 52.694 80.4793 52.3074 81.1875 51.8646C81.8646 51.4271 82.5937 51.0521 83.2708 50.5625C83.6875 50.2917 84.1979 50.6562 84.375 51.4792C84.4879 51.9758 84.4663 52.4936 84.3125 52.9792C84.1548 53.571 83.8117 54.0967 83.3333 54.4792C81.6018 55.7247 79.6405 56.6146 77.5628 57.0974C75.4852 57.5802 73.3325 57.6462 71.2291 57.2917C69.9388 57.0573 68.6679 56.7265 67.4271 56.3021C66.7789 56.0712 66.1516 55.7855 65.5521 55.4479C65.0208 55.1042 64.5104 54.75 63.9687 54.4062C61.7283 52.7055 59.9398 50.4807 58.7604 47.9271C58.3982 47.1463 58.1088 46.3339 57.8958 45.5C57.7812 45.0833 57.7396 44.6458 57.6562 44.2292C57.5677 43.8073 57.5154 43.3787 57.5 42.9479C57.3182 40.3464 57.8858 37.7473 59.1354 35.4583C60.0336 33.6738 61.2971 32.098 62.8437 30.8333C63.1979 30.5729 63.5625 30.3333 63.8854 30.1042C65.3437 29.3646 65.9687 29.5208 66.5312 30.0417C66.6604 30.1552 66.7822 30.277 66.8958 30.4062C66.9701 30.5306 67.0094 30.6728 67.0094 30.8177C67.0094 30.9626 66.9701 31.1048 66.8958 31.2292C66.7152 31.6353 66.4402 31.9924 66.0937 32.2708C65.4791 32.6979 65.0521 33.4062 64.5208 33.8125C64.2708 34.0625 64.0729 34.3542 63.8333 34.6042C63.5897 34.8436 63.3731 35.1091 63.1875 35.3958C63 35.6875 62.8125 35.9583 62.6146 36.2292C62.4166 36.5 62.3229 36.8333 62.1562 37.125C61.9896 37.4167 62 37.4167 61.9271 37.5729L61.7708 38.0417C61.6875 38.3646 61.5208 38.6562 61.4687 38.9896C60.9883 40.9608 61.1007 43.0299 61.7916 44.9375L61.7291 44.9583Z" fill="#F2E8E4"/>
<path d="M36.2395 27.875C35.8235 27.1511 35.3607 26.4552 34.8541 25.7917C34.2812 25.125 33.6874 24.4583 33.0416 23.8125C32.5937 23.3438 31.9999 22.9896 31.552 22.5208C29.8749 20.8333 28.1249 19.2188 26.2812 17.6458C25.4806 16.9435 24.6388 16.2896 23.7603 15.6875C22.59 14.975 21.5064 14.129 20.5312 13.1667C20.2395 12.8438 20.5312 12.4375 21.1666 12.125C21.8716 11.7755 22.6826 11.7048 23.4374 11.9271C24.7395 12.4792 26.0312 13.0625 27.2707 13.7396C27.9001 14.0626 28.5027 14.4354 29.0728 14.8542C29.6249 15.3125 30.1145 15.7813 30.677 16.2917C31.8957 17.5104 33.4791 18.375 34.8437 19.4167C36.3672 20.6655 37.8208 21.9974 39.1978 23.4063C39.6249 23.8854 40.0416 24.3438 40.4582 24.8542L41.0832 25.6458C41.2916 25.9063 41.4791 26.2604 41.677 26.5625C42.0051 27.1154 42.2442 27.7165 42.3853 28.3438C42.4791 28.8333 42.552 29.3229 42.6041 29.8542C42.7359 31.019 42.6151 32.1986 42.2499 33.3125C41.9537 34.2637 41.5184 35.1658 40.9582 35.9896C40.6972 36.376 40.4155 36.748 40.1145 37.1042C39.822 37.4203 39.505 37.7129 39.1666 37.9792C38.8962 38.2192 38.6109 38.4418 38.3124 38.6458C37.177 39.2604 36.6249 38.9479 35.7082 37.4479C35.4999 37.1042 35.2707 36.7604 35.0937 36.4063C34.8048 35.943 34.633 35.4165 34.5931 34.8721C34.5532 34.3276 34.6463 33.7817 34.8645 33.2813C35.304 32.5444 35.7005 31.7827 36.052 31C36.0461 30.9725 36.0461 30.9441 36.052 30.9167C36.052 30.9167 36.3437 31.0729 36.1978 31.0208L35.9999 30.9479C35.9999 30.9479 35.9999 30.8229 36.0937 30.7292L36.2082 30.4063L36.3124 29.9583L36.3749 29.4375L37.9687 29.1667H37.7603H37.5207C37.3624 29.1914 37.2059 29.2262 37.052 29.2708L36.6145 29.4167C36.5103 29.4167 36.552 29.4167 36.552 29.4167C36.6666 29.4688 36.552 29.2813 36.552 29.1875C36.5709 29.0632 36.5709 28.9368 36.552 28.8125C36.4439 28.4705 36.2971 28.142 36.1145 27.8333L36.2395 27.875Z" fill="#F2E8E4"/>
<path d="M37.1146 27.5C33.8021 24.375 30.2708 21.3438 26.6458 18.5208C25.3229 17.4792 23.8958 16.6354 22.5521 15.6771C21.9583 15.2604 21.375 14.8333 20.7708 14.4479L20.3229 14.1667L20.1042 14.0313L20.0312 13.9688L19.7917 13.7708C19.5789 13.6179 19.3522 13.4854 19.1146 13.375C18.989 13.3116 18.8487 13.2829 18.7083 13.2917C18.5625 13.2917 18.5625 13.4688 18.5104 13.5729C18.4583 13.6771 18.3542 14.0521 18.2708 14.3333C18.2203 14.4678 18.1853 14.6076 18.1667 14.75C18.1042 15.0625 18.0417 15.4583 17.9792 15.7917C17.7396 17.25 17.5312 18.7292 17.3333 20.2188C17 22.8542 16.8437 25.5313 16.6667 28.1875C16.5521 29.9063 16.4896 31.6146 16.2917 33.3958C16.1804 34.2702 16.0134 35.1365 15.7917 35.9896C15.6667 36.4271 15.5521 36.8542 15.4062 37.2917C15.2604 37.7292 15.0937 38.1667 14.8646 38.6354C14.1667 39.875 13.6042 39.0729 13.0208 38.0417C12.1568 36.6686 11.655 35.0988 11.5625 33.4792C11.7292 30.1354 11.8646 26.6771 12.0937 23.2083C12.2187 21.4583 12.3646 19.7188 12.5729 17.9479C12.6667 17.0729 12.7917 16.1875 12.9271 15.2917L13.1771 13.75C13.2479 12.9789 13.3697 12.2133 13.5417 11.4583L13.9062 10.2396L14.0833 9.625C14.1458 9.41667 14.2812 9.33333 14.375 9.1875C14.8125 8.65625 15.0417 8 15.8646 7.75C17.4246 7.40005 19.0587 7.6335 20.4583 8.40625C20.8646 8.57292 21.2708 8.78125 21.6771 8.97917L22.7187 9.55209L24.2708 10.4167C25.25 10.9688 26.1979 11.5417 27.1146 12.1458C31.1354 14.8021 34.9375 17.6875 38.6562 20.6875C39.8021 21.6042 40.9375 22.5521 42.0625 23.5208L42.8958 24.2604C43.0521 24.3854 43.1562 24.5 43.3333 24.6354L43.9375 25.1875C44.7445 25.8659 45.4746 26.6309 46.1146 27.4688C46.2604 27.6875 46.3854 27.8958 46.5104 28.1146C46.6809 28.4055 46.7907 28.728 46.8333 29.0625C46.8966 29.4091 46.8788 29.7656 46.7812 30.1042C46.583 30.8012 46.262 31.4573 45.8333 32.0417C45.4066 32.6565 44.9255 33.2317 44.3958 33.7604L43.5833 34.5521L42.9062 35.1354C41.1975 36.5321 39.4098 37.8294 37.5521 39.0208C34.6604 41.0724 31.5929 42.8641 28.3854 44.375C27.6562 44.6875 26.9479 45.0417 26.1667 45.2917C25.5564 45.4902 24.9286 45.6297 24.2917 45.7083C23.8268 45.7452 23.3593 45.6885 22.9167 45.5417C22.5493 45.4179 22.2126 45.2174 21.9288 44.9534C21.645 44.6893 21.4207 44.3679 21.2708 44.0104C21.0724 43.6778 20.9017 43.3294 20.7604 42.9688C20.4479 41.75 21.3854 40.625 22.9167 39.5833C25.3437 38.3542 27.7708 36.9375 30.2083 35.4167C31.4062 34.6354 32.6458 33.9375 33.8646 33.1771C35.0833 32.4167 36.2604 31.625 37.375 30.8125C37.8333 30.4688 38.2813 30.1146 38.6979 29.7708C39.1146 29.4271 38.8958 29.625 38.9167 29.6042C38.9467 29.6163 38.9803 29.6163 39.0104 29.6042C39.0197 29.5701 39.0197 29.5341 39.0104 29.5L38.9062 29.3958L38.6667 29.1667L38.125 28.6563L37.0208 27.6146L37.1146 27.5Z" fill="#F2E8E4"/>
<path d="M70.4895 59.7917C67.8033 59.448 65.2223 58.5307 62.9218 57.1018C60.6213 55.673 58.6549 53.7661 57.1562 51.5104C56.0068 49.9126 55.1563 48.1197 54.6458 46.2188C54.2173 44.5177 54.1009 42.753 54.302 41.0104C54.4782 39.2916 54.9542 37.617 55.7083 36.0625C56.406 34.5285 57.3528 33.1206 58.5104 31.8958C59.6046 30.6925 60.8553 29.6414 62.2291 28.7708C64.5472 27.2173 67.1268 26.0951 69.8437 25.4583C71.6371 25.0033 73.5028 24.9077 75.3333 25.1771C77.2618 25.4676 79.0061 26.4851 80.2083 28.0208C80.927 28.9896 80.2083 29.2604 79.0729 29.3333C78.4135 29.3685 77.7563 29.4381 77.1041 29.5417C76.4424 29.6447 75.7738 29.6969 75.1041 29.6979C73.8425 29.6595 72.5847 29.8574 71.3958 30.2813C70.125 30.7083 68.8854 31.3229 67.6041 31.8958C66.9687 32.1979 66.3541 32.5417 65.7604 32.8854C65.1948 33.2374 64.6489 33.6199 64.125 34.0313C63.074 34.8564 62.1324 35.812 61.3229 36.875C60.3271 38.166 59.7428 39.7267 59.6458 41.3542C59.5511 42.9899 59.8326 44.6255 60.4687 46.1354C60.8211 47.0042 61.2608 47.8348 61.7812 48.6146C62.3084 49.3755 62.9199 50.0744 63.6041 50.6979C65.0227 52.0122 66.7114 53.0005 68.552 53.5938C69.7061 53.9728 70.9028 54.2072 72.1145 54.2917C73.3454 54.3628 74.5804 54.2823 75.7916 54.0521C77.5784 53.7558 79.2701 53.042 80.7291 51.9688C82.1505 50.8619 83.2332 49.3787 83.8541 47.6875C84.7468 45.046 84.6692 42.1729 83.6354 39.5833C83.4166 39.0521 83.1875 38.5417 82.9583 38.0729C82.6299 37.4649 82.4046 36.8067 82.2916 36.125C82.3174 35.498 82.466 34.8822 82.7291 34.3125C82.8645 33.9792 82.9375 33.6042 83.0729 33.2708C83.1892 32.9923 83.3972 32.7619 83.6625 32.6179C83.9277 32.4739 84.2343 32.425 84.5312 32.4792C85.5732 32.5934 86.5297 33.109 87.1979 33.9167C87.8367 34.6102 88.3925 35.3757 88.8541 36.1979C89.3108 36.996 89.661 37.8505 89.8958 38.7396C90.4542 40.5172 90.7009 42.3779 90.625 44.2396C90.4727 48.1818 88.9218 51.941 86.25 54.8438C84.2054 57.0405 81.5793 58.6118 78.677 59.375C77.3368 59.7455 75.961 59.9724 74.5729 60.0521C73.2091 60.1576 71.8383 60.1331 70.4791 59.9792L70.4895 59.7917Z" fill="#F2E8E4"/>
<path d="M26.0418 80.0104C25.1876 78.4792 24.3855 76.8854 23.6251 75.3125L23.3022 74.6146C23.1459 74.2604 22.9793 73.9062 22.8334 73.5729C22.6876 73.2396 22.5626 72.8437 22.4376 72.5312C22.3126 72.2187 22.0313 71.8125 22.0105 71.4896C21.7722 70.8156 21.7722 70.0803 22.0105 69.4063C22.1367 69.0943 22.3088 68.8029 22.5209 68.5417C22.7579 68.2823 23.0082 68.0354 23.2709 67.8021C23.698 67.5208 24.1043 67.2188 24.5522 66.9583L25.2084 66.5625L25.7501 66.25L27.3438 65.4063C28.8751 64.625 30.323 63.7604 31.8543 63.0729C34.573 61.8646 37.323 60.75 40.1876 59.75C41.6043 59.25 43.0105 58.7083 44.5418 58.375L45.1251 58.2396C45.3896 58.1736 45.6573 58.1214 45.9272 58.0833C46.4674 57.9648 47.0201 57.9124 47.573 57.9271C47.8354 57.9193 48.0978 57.9438 48.3543 58C48.6216 58.0393 48.8794 58.1276 49.1147 58.2604C49.5763 58.5246 49.9801 58.8788 50.3022 59.3021L50.7293 59.8958L51.0938 60.5313L51.4272 61.1875L51.698 61.7917C51.9793 62.4271 52.2293 63.0625 52.4688 63.6875C52.948 64.9375 53.3959 66.1667 53.8334 67.375C55.0383 70.3415 56.0508 73.3825 56.8647 76.4792C56.924 76.6485 56.9233 76.8331 56.8626 77.0019C56.8019 77.1707 56.6849 77.3135 56.5313 77.4063C56.302 77.5396 56.0472 77.6234 55.7834 77.6521C55.5196 77.6808 55.2528 77.6538 55.0001 77.5729C54.1881 77.3794 53.423 77.0253 52.7501 76.5313C52.3691 76.2467 52.0199 75.9219 51.7084 75.5625C51.4095 75.181 51.1642 74.7605 50.9793 74.3125C49.6876 71.1146 48.6355 67.9063 47.5001 65.0104L47.073 63.9688L47.0105 63.8542V63.6458C47.0105 63.5729 47.0105 63.4167 46.9168 63.3646C46.8689 63.3321 46.8162 63.3075 46.7605 63.2917H46.6459L46.1147 63.4271L43.7501 63.9583C39.9688 65 36.2605 66.9688 32.6251 68.7292C31.6772 69.1979 30.7293 69.6667 29.8022 70.1563L28.4272 70.8854L27.823 71.2083L27.5105 71.3854C27.3855 71.4479 27.4272 71.6042 27.4376 71.6979C27.4855 71.9308 27.5481 72.1605 27.6251 72.3854L27.7605 72.7396L28.0834 73.5C28.3126 74.0208 28.5522 74.5417 28.8022 75.0833C29.3855 76.3125 30.0105 77.5417 30.6668 78.75C31.323 79.9583 32.0834 81.125 32.823 82.2917C33.7163 83.679 34.6829 85.0177 35.7188 86.3021C36.1536 86.8329 36.6234 87.3341 37.1251 87.8021C37.4584 88.1146 37.9584 88.4583 38.4272 88.1667C38.5418 88.1667 38.6459 88.0833 38.7605 88.0521L38.9272 87.9792L39.198 87.8542L40.3022 87.3542C43.2293 85.9479 46.0001 84.2292 49.0418 82.7917C49.698 82.4688 50.3647 82.1354 51.1251 81.8542C53.7813 80.8125 55.0105 81.125 55.7813 82.4792C55.9717 82.7438 56.1291 83.0306 56.2501 83.3333C56.3193 83.5941 56.3242 83.8678 56.2644 84.1309C56.2045 84.394 56.0816 84.6386 55.9063 84.8437C55.7087 85.102 55.4814 85.3363 55.2293 85.5417C54.9056 85.7869 54.5563 85.9965 54.1876 86.1667C52.1043 87.2083 49.8126 88.4375 47.4688 89.6042C46.3022 90.1979 45.1147 90.8125 43.8647 91.3646L41.9584 92.2083L40.9168 92.625C40.8543 92.625 40.6459 92.6875 40.5001 92.75L40.0209 92.9271L39.0626 93.2708C37.8206 93.5681 36.5114 93.3662 35.4168 92.7083C34.9273 92.4331 34.4696 92.1047 34.0522 91.7292C33.8438 91.5312 33.6251 91.3542 33.4272 91.1458C33.2793 91.0089 33.1401 90.8627 33.0105 90.7083C32.5313 90.1979 32.1147 89.6667 31.7188 89.1979C30.9376 88.1562 30.2501 87.1771 29.6355 86.1667C29.0209 85.1563 28.3751 84.0833 27.7813 83.1042L26.9063 81.5625L26.0001 80.0417L26.0418 80.0104Z" fill="#F2E8E4"/>
</svg>
