<svg width="100" height="100" viewBox="0 0 100 100" fill="none" xmlns="http://www.w3.org/2000/svg">
<path d="M82.0104 21.9479C82.146 21.8699 82.2661 21.7675 82.3645 21.6458C82.5416 21.4479 82.3645 21.3646 82.2708 21.25C82.2101 21.1789 82.1439 21.1127 82.0728 21.0521L81.9374 20.9687L81.3437 20.6979C80.9023 20.4993 80.446 20.3356 79.9791 20.2083L78.5728 19.7917C77.8873 19.6214 77.1914 19.4961 76.4895 19.4167C75.7708 19.2812 75.0416 19.2604 74.3124 19.1562C68.9715 18.4408 63.5455 18.6877 58.2916 19.8854C55.9109 20.448 53.5882 21.2327 51.3541 22.2292C48.4791 23.4792 45.8333 25.1354 42.8333 26.1354C41.8958 26.4271 41.2708 25.1562 41.3229 23.5208C41.3216 22.5999 41.5565 21.6941 42.0051 20.8898C42.4537 20.0856 43.1011 19.4098 43.8854 18.9271C46.9462 17.2965 50.155 15.9607 53.4687 14.9375C56.8258 13.9235 60.2906 13.3082 63.7916 13.1042C67.9583 12.8958 72.3645 12.2917 76.7499 12.9479C79.1675 13.3037 81.5368 13.9327 83.8124 14.8229L84.8541 15.2604C85.2675 15.4122 85.6711 15.5896 86.0624 15.7917C86.7654 16.1767 87.4375 16.6155 88.0729 17.1042C88.6983 17.5377 89.2871 18.022 89.8333 18.5521C90.1405 19.248 90.1921 20.0301 89.9791 20.7604C89.745 21.7204 89.3618 22.6378 88.8437 23.4792C88.5833 23.9271 88.302 24.3646 88.0103 24.8021C87.7187 25.2396 87.3854 25.7292 87.2187 25.9583C86.3645 27.0833 85.5208 28.125 84.6874 29.2708C82.1666 32.6042 79.4791 35.7917 77.2499 39.1875C75.5413 41.7994 73.9866 44.5089 72.5937 47.3021C72.2708 47.8958 72.0103 48.5104 71.677 49.1042C70.4374 51.3125 69.7395 51.8333 68.3333 51.7917C68.0177 51.8131 67.701 51.8131 67.3854 51.7917C66.4062 51.625 66.0729 50.2708 66.5729 48.3021C67.3875 45.3675 68.4648 42.5122 69.7916 39.7708C70.4583 38.3958 71.1666 37.0417 71.8749 35.6979C72.5833 34.3542 73.5208 33.1146 74.3645 31.8542C75.6354 29.9896 76.9687 28.1667 78.3333 26.4167L80.3333 23.8021L81.2916 22.5104L81.7291 21.9167L82.0104 21.9479Z" fill="#F2E8E4"/>
<path d="M26.5521 54.5208C28.0729 52.9479 29.5521 51.3437 31.1146 49.8229C32.6771 48.3021 34.2396 46.7604 35.8854 45.3333C37.0938 44.2916 38.0834 43.0312 39.3542 42.0521C43.7141 38.4867 48.4057 35.3473 53.3646 32.6771C54.4688 32.0937 55.5104 31.4166 56.6042 30.8333C57.6979 30.25 58.7917 29.6354 59.8646 29.0312C60.5417 28.6146 61.2813 28.3021 61.9479 27.9896C62.6526 27.6 63.3796 27.2522 64.125 26.9479C65.6513 26.4282 67.2303 26.0789 68.8334 25.9062C69.875 25.7916 69.9792 26.7916 69.5625 28.1146C69.1201 29.6932 68.1587 31.0766 66.8334 32.0416C66.5209 32.25 66.2188 32.4791 65.8958 32.6666L64.9167 33.1771L62.9479 34.2187C61.6667 34.9791 60.375 35.6979 59.0625 36.4062C57.75 37.1146 56.5104 37.9687 55.1979 38.6979C53.8854 39.4271 52.625 40.2916 51.2813 41.0416C50.4887 41.5216 49.7268 42.0504 49 42.625C48.25 43.1771 47.5 43.75 46.7813 44.3437L42.6042 48.1041C39.5834 50.8958 36.4584 53.75 33.6563 56.8437C31.8646 58.6979 30.2084 60.6771 28.5521 62.6562L25 67.3021C23.875 68.9062 22.7292 70.4896 21.7396 72.1666C20.9792 73.4687 20.3125 74.8229 19.6563 76.1771C19 77.5312 18.4375 78.9166 17.7084 80.2083C17.375 80.7708 17.125 81.3646 16.7917 81.9271C15.5417 84.0104 14.7084 84.5 13.2084 84.3333C12.8587 84.3226 12.5104 84.2843 12.1667 84.2187C11.125 83.9687 10.7292 82.6458 11.0729 80.7187C11.3542 79.3125 11.6146 77.8541 12.0313 76.4479C12.4479 75.0416 13.0729 73.7187 13.6459 72.3854C14.2188 71.0521 15.0521 69.8229 15.8021 68.5416C16.5521 67.2604 17.3959 66.0625 18.2188 64.8229C20.7445 61.2065 23.4637 57.7292 26.3646 54.4062L26.5521 54.5208Z" fill="#F2E8E4"/>
</svg>
