<svg width="100" height="100" viewBox="0 0 100 100" fill="none" xmlns="http://www.w3.org/2000/svg">
<path d="M82.0105 21.9479C82.1461 21.8699 82.2662 21.7675 82.3646 21.6458C82.5417 21.4479 82.3646 21.3646 82.2709 21.25C82.2102 21.1789 82.1441 21.1127 82.073 21.0521L81.9376 20.9687L81.3438 20.6979C80.9024 20.4993 80.4462 20.3356 79.9792 20.2083L78.573 19.7917C77.8874 19.6214 77.1915 19.4961 76.4896 19.4167C75.7709 19.2812 75.0417 19.2604 74.3126 19.1562C68.9716 18.4408 63.5456 18.6877 58.2917 19.8854C55.911 20.448 53.5883 21.2327 51.3542 22.2292C48.4792 23.4792 45.8334 25.1354 42.8334 26.1354C41.8959 26.4271 41.2709 25.1562 41.323 23.5208C41.3217 22.5999 41.5566 21.6941 42.0052 20.8898C42.4538 20.0856 43.1012 19.4098 43.8855 18.9271C46.9463 17.2965 50.1552 15.9607 53.4688 14.9375C56.8259 13.9235 60.2907 13.3082 63.7917 13.1042C67.9584 12.8958 72.3646 12.2917 76.7501 12.9479C79.1676 13.3037 81.5369 13.9327 83.8126 14.8229L84.8542 15.2604C85.2677 15.4122 85.6712 15.5896 86.0626 15.7917C86.7655 16.1767 87.4377 16.6155 88.073 17.1042C88.6985 17.5377 89.2873 18.022 89.8334 18.5521C90.1406 19.248 90.1922 20.0301 89.9792 20.7604C89.7451 21.7204 89.362 22.6378 88.8438 23.4792C88.5834 23.9271 88.3021 24.3646 88.0105 24.8021C87.7188 25.2396 87.3855 25.7292 87.2188 25.9583C86.3646 27.0833 85.5209 28.125 84.6876 29.2708C82.1667 32.6042 79.4792 35.7917 77.2501 39.1875C75.5414 41.7994 73.9867 44.5089 72.5938 47.3021C72.2709 47.8958 72.0105 48.5104 71.6771 49.1042C70.4376 51.3125 69.7396 51.8333 68.3334 51.7917C68.0178 51.8131 67.7011 51.8131 67.3855 51.7917C66.4063 51.625 66.073 50.2708 66.573 48.3021C67.3876 45.3675 68.4649 42.5122 69.7917 39.7708C70.4584 38.3958 71.1667 37.0417 71.8751 35.6979C72.5834 34.3542 73.5209 33.1146 74.3646 31.8542C75.6355 29.9896 76.9688 28.1667 78.3334 26.4167L80.3334 23.8021L81.2917 22.5104L81.7292 21.9167L82.0105 21.9479Z" fill="#231F20"/>
<path d="M26.5521 54.5208C28.0729 52.9479 29.5521 51.3437 31.1146 49.8229C32.6771 48.3021 34.2396 46.7604 35.8854 45.3333C37.0938 44.2916 38.0834 43.0312 39.3542 42.0521C43.7141 38.4867 48.4057 35.3473 53.3646 32.6771C54.4688 32.0937 55.5104 31.4166 56.6042 30.8333C57.6979 30.25 58.7917 29.6354 59.8646 29.0312C60.5417 28.6146 61.2813 28.3021 61.9479 27.9896C62.6526 27.6 63.3796 27.2522 64.125 26.9479C65.6513 26.4282 67.2303 26.0789 68.8334 25.9062C69.875 25.7916 69.9792 26.7916 69.5625 28.1146C69.1201 29.6932 68.1587 31.0766 66.8334 32.0416C66.5209 32.25 66.2188 32.4791 65.8958 32.6666L64.9167 33.1771L62.9479 34.2187C61.6667 34.9791 60.375 35.6979 59.0625 36.4062C57.75 37.1146 56.5104 37.9687 55.1979 38.6979C53.8854 39.4271 52.625 40.2916 51.2813 41.0416C50.4887 41.5216 49.7268 42.0504 49 42.625C48.25 43.1771 47.5 43.75 46.7813 44.3437L42.6042 48.1041C39.5834 50.8958 36.4584 53.75 33.6563 56.8437C31.8646 58.6979 30.2084 60.6771 28.5521 62.6562L25 67.3021C23.875 68.9062 22.7292 70.4896 21.7396 72.1666C20.9792 73.4687 20.3125 74.8229 19.6563 76.1771C19 77.5312 18.4375 78.9166 17.7084 80.2083C17.375 80.7708 17.125 81.3646 16.7917 81.9271C15.5417 84.0104 14.7084 84.5 13.2084 84.3333C12.8587 84.3226 12.5104 84.2843 12.1667 84.2187C11.125 83.9687 10.7292 82.6458 11.0729 80.7187C11.3542 79.3125 11.6146 77.8541 12.0313 76.4479C12.4479 75.0416 13.0729 73.7187 13.6459 72.3854C14.2188 71.0521 15.0521 69.8229 15.8021 68.5416C16.5521 67.2604 17.3959 66.0625 18.2188 64.8229C20.7445 61.2065 23.4637 57.7292 26.3646 54.4062L26.5521 54.5208Z" fill="#231F20"/>
</svg>
