<svg width="100" height="100" viewBox="0 0 100 100" fill="none" xmlns="http://www.w3.org/2000/svg">
<path d="M65.0294 82.0466C65.3944 82.4714 65.5862 83.0179 65.5666 83.5776C65.5574 84.1984 65.5035 84.8178 65.4054 85.4309C65.4054 85.8875 64.6802 86.6127 64.3042 86.4247C63.5126 86.0472 62.7573 85.5977 62.0481 85.0817C59.6417 82.667 57.3815 80.1108 55.2796 77.4269C53.9022 75.5795 52.6804 73.621 51.6268 71.5716L48.4037 65.3941C47.3293 63.3528 46.4967 61.2041 45.7178 59.0553C45.3135 58.1065 45.0163 57.1155 44.8314 56.1009C44.1248 52.6541 43.0441 49.2947 41.6084 46.0825C41.4583 45.493 41.1521 44.9548 40.722 44.5246C39.7108 42.8443 38.9251 41.0382 38.3853 39.1528C37.6543 37.2632 37.1756 35.2855 36.9618 33.2707C36.9618 30.0476 36.6126 26.9051 36.532 23.6821C36.532 23.2254 36.3172 22.7688 36.532 22.2854C36.9878 21.3429 37.1291 20.279 36.9349 19.2503C36.8494 17.8786 36.9034 16.5017 37.0961 15.1409C37.2727 14.4191 37.5436 13.7238 37.9018 13.0727C38.1704 12.4819 39.1373 12.831 39.2448 13.0727C39.3522 13.3145 40.0237 13.0727 40.4266 13.0727C40.5695 13.0592 40.7134 13.0592 40.8563 13.0727C41.0175 13.0727 41.5815 14.7917 42.5484 16.5107C43.5154 18.2297 44.6166 19.9486 44.7777 20.3515C44.9389 20.7544 45.5835 23.0374 46.7116 25.5353C47.8397 28.0332 49.0483 30.9071 49.3975 31.3637C49.6639 31.9452 49.8014 32.5774 49.8004 33.217C49.8004 33.5393 53.1309 41.2747 53.2652 41.7044C53.9765 43.3526 54.3684 45.1208 54.4201 46.9151C54.4164 47.2817 54.509 47.6429 54.6887 47.9626C55.8168 50.6485 56.5957 53.7373 57.3746 56.6649C57.8312 58.169 58.5833 59.5388 59.0399 61.0429C59.0546 61.3382 59.0546 61.634 59.0399 61.9293C59.05 62.2946 59.1133 62.6565 59.2279 63.0036C60.3685 66.5537 61.6954 70.0413 63.203 73.4518C63.6327 74.1501 64.1699 78.367 64.6265 79.1996C65.0831 80.0322 64.6534 81.7243 65.0294 82.0466Z" fill="#1E1E1E"/>
<path d="M17.8918 64.7226C17.4109 65.0208 16.8318 65.1173 16.2802 64.9912C15.6846 64.8601 15.1007 64.6804 14.5344 64.454C14.1047 64.454 13.5138 63.5408 13.7824 63.1916C14.2748 62.4956 14.8324 61.8481 15.4476 61.2578C15.6088 61.0966 17.2203 59.9954 18.9661 58.8405C20.712 57.6855 22.6727 56.3426 23.7202 55.8323C25.6615 54.7808 27.6821 53.8828 29.7635 53.1464L35.9947 50.6485C38.0629 49.789 40.2116 49.1712 42.3066 48.4729C43.2252 48.1186 44.18 47.8664 45.1537 47.7208C48.5152 47.253 51.8016 46.3501 54.9303 45.0349C55.4999 44.904 56.0211 44.6154 56.4344 44.2023C59.746 42.4811 63.294 41.2592 66.9632 40.5764C69.9339 40.4105 72.893 40.0787 75.8266 39.5826C76.2295 39.5826 76.6055 39.2603 77.089 39.5826C77.5353 39.7709 78.0147 39.868 78.4991 39.868C78.9835 39.868 79.463 39.7709 79.9092 39.5826C81.1179 39.2871 82.3534 39.0454 83.562 38.7768C84.2318 38.7095 84.9067 38.7095 85.5765 38.7768C86.1942 38.7768 86.4091 39.7706 86.2748 39.9586C86.1405 40.1466 86.5434 40.6838 86.7851 41.0061C86.8766 41.119 86.9492 41.246 87 41.3821C84.9735 43.5945 82.7827 45.6506 80.4464 47.5328L69.4073 53.2001C68.8166 53.474 68.1778 53.6292 67.5272 53.6567C67.2049 53.6567 59.2278 57.0141 58.9055 57.0678C57.1999 57.7544 55.3716 58.0835 53.5337 58.0347C53.174 58.0023 52.8122 58.0673 52.4862 58.2227C49.5778 59.1244 46.618 59.8508 43.6227 60.3983C42.0917 60.6937 40.6682 61.3384 39.1373 61.6338C38.8687 61.6338 38.5464 61.6338 38.2778 61.6338C37.9218 61.5784 37.5594 61.5784 37.2034 61.6338C33.658 62.547 29.9783 63.0036 26.4598 64.3197C25.7078 64.6689 21.464 64.5883 20.5777 64.9106C19.6913 65.2329 18.2947 64.4271 17.8918 64.7226Z" fill="#1E1E1E"/>
<path d="M38.439 82.5838C38.3831 82.8288 38.2749 83.0587 38.122 83.2581C37.969 83.4574 37.7748 83.6214 37.5527 83.7387C37.0476 84.01 36.5275 84.2521 35.9949 84.4639C35.592 84.6251 34.625 84.4639 34.5445 84.1148C34.4002 83.3257 34.3193 82.5263 34.3027 81.7243C34.3027 81.5363 34.625 79.7368 35.0011 77.8835C35.3771 76.0302 35.7531 73.8815 36.0754 72.8608C36.633 70.9277 37.3424 69.0417 38.1973 67.2205L40.6683 61.6875C41.4741 59.8342 42.4947 58.1153 43.3542 56.3157C43.7839 55.537 44.2972 54.8075 44.8852 54.1401C46.8397 51.8081 48.4415 49.2019 49.6392 46.4047C49.9327 45.969 50.0829 45.4526 50.069 44.9275C51.0455 41.7347 52.5527 38.7293 54.5276 36.0372C56.371 34.121 58.0848 32.0841 59.6576 29.9402C59.8725 29.6447 59.9262 29.2418 60.4097 29.0807C61.5646 28.7315 61.8063 27.9795 62.1824 27.308C62.5584 26.6365 63.391 25.401 63.9013 24.6221C64.2828 24.1466 64.7151 23.7143 65.1906 23.3329C65.4017 23.1974 65.6553 23.1444 65.9031 23.184C66.1508 23.2237 66.3752 23.3531 66.5335 23.5477C66.7215 24.1118 67.2856 23.7895 67.6885 23.8163C67.821 23.7854 67.9588 23.7854 68.0914 23.8163C68.4846 26.5915 68.5836 29.4004 68.3868 32.1963L67.9033 33.8347C67.6348 34.8016 67.2587 36.064 66.8558 37.3264C66.0501 40.0123 65.1906 42.5102 65.0563 43.0474C64.8539 43.6101 64.5333 44.1229 64.1162 44.5515C63.9551 44.7932 60.8931 51.9914 60.7051 52.2331C59.8188 53.5761 59.3353 55.1608 57.8044 56.1277C57.5562 56.338 57.3627 56.6052 57.2403 56.9066C55.9189 59.3184 54.429 61.634 52.7817 63.8362C51.9491 64.9912 51.4388 66.2804 50.6061 67.4353C50.4381 67.6343 50.249 67.8144 50.0421 67.9725C49.7914 68.1778 49.5659 68.4122 49.3706 68.6708C47.5979 71.3567 45.4492 74.0426 43.9988 76.9166C43.7302 77.6418 40.8295 80.1396 40.4534 80.8648C40.0774 81.59 38.4927 82.1541 38.439 82.5838Z" fill="#1E1E1E"/>
<path d="M81.8968 67.1131C82.4223 67.3398 82.8372 67.7644 83.0518 68.2949C83.3087 68.9051 83.4102 69.5696 83.3472 70.2287C83.2435 70.4737 83.0818 70.6898 82.8759 70.8583C82.6699 71.0267 82.4261 71.1425 82.1654 71.1956C81.494 71.1956 81.0374 71.1956 80.3122 71.0076C80.0973 71.0076 78.6738 70.4704 76.8205 70.0407C74.9672 69.6109 72.9259 69.2081 71.959 68.8589C70.0308 68.3196 68.1454 67.6372 66.3186 66.8176L60.6782 64.5077C58.7712 63.7557 56.9985 62.8156 55.1453 61.8218C54.326 61.4218 53.5517 60.9356 52.8354 60.3715C50.3766 58.4795 47.6642 56.9425 44.7777 55.8054C44.3165 55.5298 43.7832 55.3988 43.2467 55.4294C39.906 54.4703 36.7474 52.9637 33.8998 50.9708C31.8585 48.9832 29.6561 47.2643 27.5074 45.599C27.2119 45.3573 26.7822 45.2498 26.6479 44.7395C26.2987 43.5846 25.5467 43.2623 24.8483 42.7519C23.9063 42.0573 23.0092 41.3037 22.1624 40.4958C21.7205 40.0177 21.3415 39.4852 21.0344 38.9111C20.712 38.4008 21.4104 37.7025 21.5984 37.6756C22.2161 37.6756 22.055 37.031 22.1893 36.655C22.23 36.5198 22.2936 36.3926 22.3773 36.2789C23.6264 36.305 24.873 36.4036 26.1107 36.5744C27.9908 36.7624 30.0053 36.8967 30.3544 37.0041L35.2965 38.7231C37.7944 39.5557 40.4265 40.3884 40.9906 40.5227C41.5455 40.712 42.0504 41.0241 42.4678 41.4359C42.6827 41.6239 50.0152 44.4709 50.2838 44.6589C51.8233 45.2324 53.2107 46.1512 54.3395 47.3448C54.5631 47.5961 54.851 47.7818 55.1721 47.882C57.6722 49.1501 60.0939 50.5673 62.4241 52.1257C63.6327 52.9047 65.11 53.415 66.1843 54.1939C66.3992 54.355 66.5872 54.5968 66.7752 54.7579C66.999 55.0101 67.2514 55.2355 67.5273 55.4294C70.4818 57.1215 73.1677 59.2702 76.2296 60.8012C76.9816 61.0966 79.587 64.1049 80.339 64.642C81.0911 65.1792 81.4671 66.925 81.8968 67.1131Z" fill="#1E1E1E"/>
</svg>
