<svg width="100" height="100" viewBox="0 0 100 100" fill="none" xmlns="http://www.w3.org/2000/svg">
<path d="M73.177 65.8854C71.3799 66.7756 69.6404 67.7776 67.9687 68.8854C67.3749 69.3125 66.8332 69.7812 66.2603 70.2187C64.2032 71.7022 62.3837 73.49 60.8645 75.5208C60.2477 76.4379 59.7473 77.4282 59.3749 78.4687C59.0937 79.125 58.9895 79.8229 58.7082 80.4792C58.5937 80.8229 58.4687 81.1562 58.3437 81.5208C58.2187 81.8854 58.1249 82.2187 57.9895 82.5625C57.8541 82.9062 57.5207 82.9167 57.177 82.4792C56.6957 81.8324 56.4395 81.0457 56.4478 80.2396C56.4731 79.4023 56.6495 78.5765 56.9687 77.8021L57.427 76.6458L57.9895 75.5312C58.788 74.0951 59.7956 72.7857 60.9791 71.6458C62.3645 70.2917 63.6978 68.8333 65.2187 67.6146C66.8852 66.3125 68.6241 65.1057 70.427 64C71.4687 63.3125 72.6353 62.6771 73.7499 62.0312C75.4166 60.9896 77.1666 60.2083 78.7812 59.1979C79.9776 58.3996 81.1222 57.5263 82.2082 56.5833L82.8541 55.9792C83.677 55.2812 83.8957 55.2396 84.7499 55.5625C84.9374 55.6354 85.1353 55.6875 85.3124 55.7708C85.458 55.83 85.5831 55.9307 85.6719 56.0603C85.7608 56.1899 85.8097 56.3428 85.8124 56.5C85.818 56.9485 85.6711 57.3855 85.3957 57.7396C84.5112 58.9274 83.4585 59.9801 82.2707 60.8646C81.1157 61.6724 79.9197 62.4199 78.6874 63.1042C76.9062 64.1458 75.052 65.0208 73.2707 66L73.177 65.8854Z" fill="#1E1E1E"/>
<path d="M82.4479 29.9167C82.2604 29.6562 82.0833 29.3958 81.8854 29.1458L81.2499 28.4479L79.927 27.0833L78.4583 25.8125L77.7291 25.1667L76.9374 24.5937L75.3333 23.4479C74.7812 23.0937 74.1979 22.7812 73.6249 22.4062C72.4776 21.7292 71.2876 21.1273 70.0624 20.6042C65.0267 18.5298 59.6776 17.3184 54.2395 17.0208C50.2516 16.8466 46.2568 17.1297 42.3333 17.8646C35.3558 19.0875 28.6979 21.7095 22.7604 25.5729C19.8555 27.4768 17.2802 29.8411 15.1354 32.5729C13.0439 35.2576 11.6162 38.3985 10.9687 41.7396C10.4277 44.6374 10.7539 47.6304 11.9062 50.3437C13.0733 53.1788 14.7783 55.761 16.927 57.9479C21.1457 62.2742 26.3656 65.4941 32.1249 67.3229C33.0833 67.6042 34.052 67.9062 35.0312 68.1771C36.0195 68.4407 37.0209 68.6528 38.0312 68.8125C40.552 69.1667 40.2916 69.4479 38.0312 70.0417C36.4372 70.4148 34.8123 70.6415 33.177 70.7187C30.8177 70.7357 28.4735 70.3409 26.2499 69.5521C24.0541 68.7882 21.9339 67.8223 19.9166 66.6667C18.8749 66.0937 17.9166 65.4583 16.9583 64.7917C16.0079 64.0776 15.0968 63.3126 14.2291 62.5C10.5463 59.2669 7.74971 55.1473 6.10411 50.5312C5.27123 48.0524 4.96608 45.4267 5.20828 42.8229C5.35696 41.5598 5.60071 40.3097 5.93744 39.0833L6.15619 38.1875L6.47911 37.3125L7.13536 35.5833C9.08726 31.1649 12.0871 27.2891 15.8749 24.2917C20.2136 20.8004 25.0433 17.9678 30.2083 15.8854C32.7833 14.8419 35.4202 13.9582 38.1041 13.2396L40.1874 12.75L42.2708 12.375C43.6354 12.0937 45.0312 11.9896 46.4374 11.8229C52.5076 11.3077 58.6211 11.7542 64.552 13.1458C67.5199 13.8602 70.4144 14.8507 73.1979 16.1042C76.0174 17.3414 78.6901 18.8891 81.1666 20.7187C84.2105 23.036 86.8382 25.854 88.9374 29.0521C91.0974 32.2791 92.52 35.9422 93.1041 39.7812C93.5897 42.731 93.4585 45.7494 92.7187 48.6458C91.9056 51.5613 90.4818 54.2706 88.5416 56.5937C84.7708 61.1667 79.8541 64.0833 75.3645 66.9375C72.0806 68.8995 69.0687 71.2845 66.4062 74.0312C65.1986 75.3274 64.1941 76.799 63.427 78.3958C63.2708 78.7917 63.0624 79.1667 62.9374 79.5729L62.8124 79.9687C62.7499 80.1458 62.6874 80.3125 62.6354 80.5104C62.5055 80.9119 62.4285 81.3286 62.4062 81.75L62.3124 83.1146V83.8125V84.6458C62.3124 85.7917 62.3124 86.9167 62.4583 88.0937L61.6041 88.2604C61.5686 88.2595 61.5334 88.2666 61.501 88.281C61.4686 88.2954 61.4397 88.3168 61.4166 88.3437L61.302 88.4479L61.0729 88.6458L60.9583 88.7396C60.9583 88.7396 60.8854 88.7396 60.802 88.7396L60.5937 88.6771C60.302 88.5937 60.0937 88.4896 59.8437 88.4062C58.874 88.0462 57.948 87.578 57.0833 87.0104C56.6184 86.6719 56.1765 86.3031 55.7604 85.9062C55.3229 85.5208 54.9166 85.0625 54.5208 84.6771C53.7499 83.8333 53.0416 83.0312 52.4374 82.2604L52.0208 81.7292L51.7708 81.3958L51.3229 80.75C51.0416 80.3437 50.8124 79.9583 50.6145 79.6042C50.2789 79.0155 50.0331 78.38 49.8854 77.7187C49.7862 77.1781 49.7862 76.624 49.8854 76.0833C49.9251 75.612 50.0052 75.145 50.1249 74.6875C50.3645 74.0521 51.1666 74.1667 52.2812 74.8542C52.9628 75.2754 53.5952 75.7715 54.1666 76.3333C54.5208 76.6562 54.8749 77.0208 55.2083 77.375L55.7812 77.9896L56.0833 78.3125L56.1874 78.4062C56.5182 78.71 56.8899 78.9659 57.2916 79.1667C57.4166 79.1667 57.552 79.2708 57.6562 79.1667C57.7604 79.0625 57.5729 78.6875 57.552 78.4792C57.5312 78.2708 57.552 78.2083 57.552 78.1042V77.9479C57.552 77.8542 57.552 77.9479 57.552 77.6979C58.1202 76.0064 58.9119 74.3984 59.9062 72.9167C61.7774 70.1941 64.0577 67.7767 66.6666 65.75C69.1562 63.7292 71.7291 62.0521 74.1562 60.4062C76.5833 58.7604 78.9166 57.2292 80.8854 55.5417C82.7406 54.056 84.293 52.2277 85.4583 50.1562C85.9964 49.1649 86.4226 48.1168 86.7291 47.0312C87.0275 45.9303 87.1884 44.7967 87.2083 43.6562C87.2579 41.229 86.8588 38.8135 86.0312 36.5312C85.6202 35.3581 85.0823 34.2334 84.427 33.1771C84.0937 32.6354 83.802 32.0729 83.4583 31.5417L82.302 30.0208L82.4479 29.9167Z" fill="#1E1E1E"/>
<path d="M55.9375 44.1042C56.0791 44.9492 55.9743 45.8172 55.6354 46.6042C55.5065 46.9485 55.3388 47.277 55.1354 47.5833C55.0208 47.7396 54.9479 47.8854 54.8125 48.0417C54.6771 48.1979 54.5104 48.375 54.3542 48.5208C54.1204 48.7634 53.8581 48.9768 53.5729 49.1562C53.2889 49.3685 52.9555 49.5047 52.6042 49.5521C52.117 49.6361 51.6178 49.6213 51.1365 49.5086C50.6551 49.3959 50.2013 49.1875 49.8021 48.8958C49.207 48.4713 48.6979 47.9375 48.3021 47.3229C47.9193 46.8135 47.6106 46.2523 47.3854 45.6562C47.3141 45.441 47.255 45.2219 47.2083 45C47.2083 44.7604 47.2083 44.5104 47.2083 44.2604C47.2398 44.0314 47.2885 43.805 47.3542 43.5833C47.4729 43.3721 47.6454 43.196 47.8542 43.0729C48.1146 42.8854 48.6979 43.3958 49.3229 43.8854C49.7222 44.2303 50.186 44.4923 50.6875 44.6562C50.7917 44.5208 50.9479 44.4583 50.9792 44.6562C51.0104 44.8542 51.1354 45.1458 51.2396 45.4687C51.2552 45.5346 51.2887 45.5948 51.3366 45.6426C51.3844 45.6904 51.4446 45.724 51.5104 45.7396C51.5004 45.8226 51.5004 45.9065 51.5104 45.9896C51.5016 46.0237 51.5016 46.0596 51.5104 46.0937C51.5059 46.1143 51.5059 46.1356 51.5104 46.1562L51.4583 46.0937C51.4583 46.0937 51.3542 45.8333 51.3646 45.8333C51.3595 45.8058 51.3595 45.7775 51.3646 45.75L51.4479 45.6667L51.5 45.5417C51.5 45.4583 51.6042 45.3646 51.5937 45.3333C51.5833 45.3021 51.6979 45.2083 51.6667 45.0833C51.5591 44.9434 51.4134 44.8375 51.2471 44.7784C51.0808 44.7193 50.9009 44.7094 50.7292 44.75C50.6609 44.7865 50.5978 44.8321 50.5417 44.8854C50.5125 44.9387 50.4881 44.9945 50.4687 45.0521C50.455 45.0123 50.4376 44.974 50.4167 44.9375C50.3596 44.8415 50.2895 44.7538 50.2083 44.6771C50.183 44.6196 50.1436 44.5695 50.0937 44.5312C50.0937 44.5312 49.9271 44.4375 49.9688 44.4479H50.0521C50.1403 44.4752 50.2347 44.4752 50.3229 44.4479C50.4656 44.4306 50.6056 44.3956 50.7396 44.3437H50.6667L50.4271 44.4583C50.25 44.5521 50.0417 44.6667 49.7917 44.8229C49.5417 44.9792 49.3333 45.1146 49.1146 45.2604C48.3854 45.7812 47.5625 45.9375 46.9583 45.2604C46.7555 44.877 46.6215 44.461 46.5625 44.0312C46.5651 43.5097 46.6677 42.9934 46.8646 42.5104C47.0775 42.0879 47.3552 41.7013 47.6875 41.3646C47.9602 41.0917 48.2686 40.8569 48.6042 40.6667C49.6636 40.0746 50.914 39.9249 52.0833 40.25C52.9497 40.4345 53.7578 40.8278 54.4375 41.3958C55.255 42.0867 55.8224 43.0275 56.0521 44.0729L55.9375 44.1042Z" fill="#1E1E1E"/>
<path d="M37.5 46.3854C37.8057 47.4144 37.7505 48.517 37.3437 49.5104C36.9393 50.4478 36.3009 51.2656 35.4896 51.8854C34.9728 52.3555 34.3621 52.7105 33.6979 52.9271C33.4116 52.9959 33.117 53.024 32.8229 53.0104C32.5146 53.0149 32.2079 52.9656 31.9166 52.8646C31.2717 52.6932 30.6941 52.33 30.2604 51.8229C29.5941 51.0715 29.1441 50.1535 28.9583 49.1666C28.8099 48.3981 28.7748 47.612 28.8541 46.8333C28.8619 46.3078 29.0062 45.7934 29.2729 45.3405C29.5395 44.8876 29.9193 44.5118 30.375 44.25C30.6771 44.1041 30.9791 44.5729 31.3021 45.1354C31.4687 45.4062 31.6458 45.6979 31.8125 45.9271C31.9465 46.0952 32.0684 46.2728 32.1771 46.4583C32.3028 46.8256 32.4743 47.1755 32.6875 47.5C32.6875 47.5833 32.7916 47.6562 32.7812 47.75C32.7757 47.8402 32.7757 47.9306 32.7812 48.0208C32.776 48.111 32.776 48.2014 32.7812 48.2916V48.5521C32.7686 48.6174 32.7686 48.6846 32.7812 48.75C32.7502 48.7857 32.7287 48.8287 32.7187 48.875C32.6967 48.9254 32.6793 48.9777 32.6666 49.0312C32.8229 48.5208 32.6666 48.8958 32.7396 48.7812C32.7396 48.7812 32.8229 48.7812 32.9062 48.7812L33.125 48.7083C33.3216 48.6426 33.4975 48.5261 33.6347 48.3706C33.7718 48.2152 33.8655 48.0262 33.9062 47.8229C33.914 47.6637 33.8852 47.5049 33.822 47.3586C33.7588 47.2123 33.6629 47.0825 33.5416 46.9791C33.3484 46.782 33.1092 46.636 32.8456 46.5542C32.5819 46.4724 32.3021 46.4573 32.0312 46.5104C31.9345 46.5417 31.8483 46.5991 31.7821 46.6763C31.7159 46.7535 31.6724 46.8475 31.6562 46.9479V47.0521H31.5833L31.7291 47.1146C31.8229 47.1146 31.8333 47.1146 31.8646 47.2187C31.8958 47.3229 31.9687 47.3229 31.9687 47.375C31.9888 47.4394 31.9888 47.5084 31.9687 47.5729C31.8924 47.6565 31.8087 47.7332 31.7187 47.8021C31.4112 48.0119 31.0831 48.1899 30.7396 48.3333L30.125 48.625C29.802 48.7846 29.4384 48.8432 29.0816 48.793C28.7248 48.7428 28.3914 48.5863 28.125 48.3437C27.7434 47.8233 27.5159 47.206 27.4687 46.5625C27.4341 46.1378 27.4946 45.7108 27.6458 45.3125C27.7763 44.92 27.9622 44.5482 28.1979 44.2083C28.6346 43.6368 29.2023 43.1785 29.8531 42.8722C30.5038 42.5658 31.2187 42.4203 31.9375 42.4479C33.1509 42.472 34.3337 42.8326 35.3541 43.4896C36.368 44.1456 37.1398 45.1149 37.5521 46.25L37.5 46.3854Z" fill="#1E1E1E"/>
<path d="M30.552 49.1667C30.6314 48.9063 30.6975 48.6421 30.7499 48.375C30.7499 48.2813 30.677 48.2396 30.7499 48.1459C30.8624 47.8039 30.9562 47.4562 31.0312 47.1042C31.033 47.0406 31.0187 46.9777 30.9896 46.9212C30.9604 46.8647 30.9174 46.8166 30.8645 46.7813C30.7291 46.6771 30.4478 46.6667 30.7291 46.3438C31.0103 46.0209 33.9583 44.5729 34.1458 44.7917C34.3027 44.9692 34.3945 45.195 34.4059 45.4317C34.4172 45.6685 34.3475 45.902 34.2083 46.0938C34.0208 46.4271 34.2812 46.5729 34.3124 46.8125C34.328 47.0727 34.328 47.3336 34.3124 47.5938C34.3018 47.7498 34.3018 47.9064 34.3124 48.0625C34.3124 48.2917 34.3124 48.5417 34.4166 48.7188C34.5208 48.8959 34.8228 48.9167 35.0416 49C35.0937 49 35.177 49 35.2083 49C35.2395 49 35.2083 49.1042 34.9999 49.2292L34.6145 49.4167L33.9895 49.6979L33.4478 49.9375C32.8926 50.1917 32.3084 50.3771 31.7083 50.4896C30.8958 50.4896 30.6666 50.1979 30.4999 49.9063C30.4305 49.6698 30.4127 49.4211 30.4478 49.1771L30.552 49.1667Z" fill="#1E1E1E"/>
<path d="M72.6979 42.7083C72.474 43.4744 72.0906 44.1844 71.5729 44.7917C71.2768 45.1422 70.9248 45.4413 70.5312 45.6771C70.3229 45.8021 70.125 45.9167 69.9166 46.0208C69.7065 46.1025 69.4906 46.1686 69.2708 46.2188C68.6977 46.4096 68.0899 46.4736 67.4895 46.4063C67.1946 46.3435 66.9055 46.2564 66.625 46.1458C66.3792 46.024 66.1425 45.8848 65.9166 45.7292C65.5527 45.4319 65.2365 45.0806 64.9791 44.6875C64.5718 44.0511 64.2857 43.3447 64.1354 42.6042C63.9343 41.9684 63.8774 41.2959 63.9687 40.6354C63.9842 40.41 63.9842 40.1838 63.9687 39.9583C64.028 39.7459 64.1231 39.5451 64.25 39.3646C64.552 39.0313 64.7812 38.6667 65.3645 38.6979C65.6286 38.7547 65.8645 38.9021 66.0312 39.1146L66.4479 39.5625L66.8125 39.9792C67.1571 40.3847 67.561 40.7358 68.0104 41.0208C67.911 41.2535 67.8309 41.4939 67.7708 41.7396C67.6979 41.9688 67.7708 42.0104 67.7708 42.0625C67.6883 42.1952 67.6252 42.3391 67.5833 42.4896C67.5833 42.4896 67.5833 42.5417 67.5833 42.5729C67.5833 42.3125 67.5208 43.1771 67.5833 41.9792C67.5858 42.0208 67.5858 42.0625 67.5833 42.1042C67.5753 42.1384 67.5753 42.1741 67.5833 42.2083C67.5833 42.2083 67.6562 42.1354 67.7291 42.0938C67.8786 41.8865 67.9654 41.6406 67.9791 41.3854C67.9791 40.9688 67.9791 40.4583 67.7083 40.3438C67.4375 40.2292 67.4479 40.6354 67.427 40.875C67.427 40.875 67.427 41.0208 67.427 40.9792C67.427 40.9375 67.2395 40.9063 67.0729 40.6771C66.9062 40.4479 66.6979 40.1458 66.3958 39.6979L65.9895 39.1042C65.7587 38.815 65.6091 38.4696 65.556 38.1035C65.5029 37.7373 65.5483 37.3636 65.6875 37.0208C65.8039 36.7855 65.9628 36.5736 66.1562 36.3958C66.384 36.2255 66.637 36.0919 66.9062 36C67.0416 36 67.1666 35.8958 67.3125 35.8646C67.4824 35.8539 67.6529 35.8539 67.8229 35.8646C68.1688 35.8224 68.5186 35.8224 68.8645 35.8646C69.5259 36.0185 70.1468 36.3119 70.6857 36.7251C71.2247 37.1382 71.6692 37.6617 71.9895 38.2604C72.8193 39.5845 73.1136 41.175 72.8125 42.7083H72.6979Z" fill="#1E1E1E"/>
</svg>
