<svg width="100" height="100" viewBox="0 0 100 100" fill="none" xmlns="http://www.w3.org/2000/svg">
<path d="M20.4687 59.5521C22.552 61.6354 24.6354 63.6562 26.7187 65.6979C27.4791 66.4375 28.2916 67.125 29.052 67.875C31.7187 70.5312 34.3749 73.1979 36.927 75.9687L40.3854 79.6041C41.9294 81.1228 43.2169 82.8817 44.1979 84.8125C44.4687 85.4687 44.1979 85.4583 43.677 85.1146C42.8792 84.6032 42.1265 84.0247 41.427 83.3854C41.0624 83.0104 40.6562 82.6458 40.2812 82.2812L39.6874 81.75L39.1041 81.25L36.8333 78.9687C35.3229 77.4479 33.7708 75.9375 32.2916 74.3333C30.5312 72.4167 28.4583 70.6458 26.5208 68.8125L20.1458 62.7083C18.8437 61.4375 17.552 60.1771 16.2812 58.8437C16.0416 58.5937 15.7916 58.3437 15.5624 58.0729C15.3333 57.8021 15.3229 57.8125 15.2083 57.6666C15.0937 57.5208 14.9687 57.3958 14.8124 57.1667C14.4923 56.7945 14.3282 56.3131 14.3541 55.8229C14.3931 55.5822 14.4631 55.3476 14.5624 55.125C14.6562 54.8958 14.7812 54.6562 14.8541 54.5208C15.5624 53.25 16.3645 52.1458 17.1041 50.9896C18.2708 49.2187 19.3333 47.4271 20.3958 45.6562C20.6354 45.2604 20.8333 44.8646 21.0937 44.4896C21.4168 43.99 21.7828 43.5195 22.1874 43.0833C22.4369 42.8733 22.7336 42.7267 23.052 42.6562C23.1746 42.6132 23.2998 42.5784 23.427 42.5521C23.6041 42.5521 23.6979 42.7083 23.7083 43.0937C23.7147 43.6206 23.6081 44.1428 23.3958 44.625C21.9479 48.25 19.3854 51.3437 17.5416 54.6771C17.3854 54.9792 17.2187 55.2812 17.0833 55.5625L16.9895 55.7708L17.1979 56.0312L17.5312 56.4166C18.4479 57.4583 19.4999 58.5 20.5312 59.5416L20.4687 59.5521Z" fill="#1E1E1E"/>
<path d="M52.7188 64.5833C52.7188 64.5833 55.125 64.4271 55.5 63.0625C55.875 61.6979 55.5 67.1458 55.5 67.1458L52.7188 64.5833Z" fill="#1E1E1E"/>
<path d="M56.25 53.2917L49.8958 53.5833L47.5937 53.75L43.5104 53.9688C42.1458 53.9688 40.7813 54.0625 39.4167 54.1458C38.2083 54.2292 37 54.3333 35.8125 54.4375L31.1979 54.8438C30.7188 54.8438 30.7813 54.8438 31.1979 54.7813C31.6146 54.7188 32.3333 54.5208 33.2083 54.375C36.3333 53.8438 39.4583 53.3333 42.5833 52.9896L48.375 52.375L54.7604 51.8229L58.6875 51.5313C60.6771 51.375 62.6667 51.25 64.6354 51.0417C66.1667 50.8958 67.6458 50.625 69.1563 50.4167C69.4896 50.4167 69.8125 50.3125 70.1979 50.2813C71.4375 50.1563 71.8437 50.2813 72.1562 50.7083C72.2332 50.8051 72.2996 50.9099 72.3542 51.0208C72.5104 51.3854 72.0313 51.7292 71.125 51.9271C68.3559 52.4808 65.5496 52.8289 62.7292 52.9688L56.25 53.3229V53.2917Z" fill="#1E1E1E"/>
<path d="M37.2083 49.7604L35.8646 48.0625C35.6979 47.8542 35.5104 47.6667 35.3542 47.4583C34.8229 46.6875 34.3125 45.9063 33.8021 45.1146L33.1146 44.0729C32.8054 43.6582 32.5629 43.1978 32.3958 42.7083C32.3021 42.3854 32.9271 42.5937 33.2708 43.0208C33.8542 43.8437 34.5521 44.6146 35.1667 45.4688C35.5729 45.9593 36.004 46.4286 36.4583 46.875L37.875 48.4792L38.7604 49.4583C39.2187 49.9479 39.6667 50.4479 40.1562 50.8958C40.5572 51.2222 40.9744 51.5281 41.4062 51.8125C41.5039 51.8689 41.5978 51.9315 41.6875 52C42.0104 52.2708 42.0312 52.4375 41.7917 52.8125C41.7422 52.9031 41.6865 52.9901 41.625 53.0729C41.5379 53.2004 41.4067 53.2912 41.2567 53.3278C41.1067 53.3643 40.9484 53.344 40.8125 53.2708C39.9812 52.7887 39.235 52.1728 38.6042 51.4479C38.1146 50.9167 37.6458 50.4062 37.1667 49.8125L37.2083 49.7604Z" fill="#1E1E1E"/>
<path d="M23.5312 59.6146C26.0416 62.5 28.6458 65.3021 31.2499 68.1041C32.2187 69.1458 33.3333 70.0521 34.2499 71.0937C37.6353 74.7604 40.9478 78.5104 44.2395 82.3125C45.6666 84.0208 47.177 85.6875 48.6353 87.3854L50.052 89.0416C50.4687 89.6562 50.8749 90.25 51.2395 90.9166C52.0772 92.2808 52.6003 93.8145 52.7708 95.4062C52.7708 96.6666 52.0728 96.2187 51.2395 95.7396C50.0639 95.2307 48.9492 94.5913 47.9166 93.8333C47.4374 93.3854 46.927 92.9479 46.3958 92.5104C45.9106 92.0356 45.4516 91.5349 45.0208 91.0104L42.2291 87.8854L40.8228 86.3229L39.4791 84.6666C38.5833 83.5521 37.6978 82.4271 36.8228 81.2812C34.537 78.5886 32.1026 76.0255 29.5312 73.6042C26.8437 70.7917 24.1562 67.9479 21.5103 65.0416C19.8645 63.2812 18.2499 61.4583 16.6666 59.4791L16.2291 58.875C16.052 58.625 15.8749 58.3229 15.6978 58.0417C15.3766 57.4909 15.1677 56.882 15.0833 56.25C15.1409 55.5975 15.2881 54.9561 15.5208 54.3437C15.8124 53.6979 15.9895 53.3021 16.2187 52.875C17.0833 51.1875 17.9999 49.6146 18.8437 48.0208C19.4999 46.7708 20.0937 45.5208 20.6562 44.2604C21.2187 43 21.6978 41.7083 22.3541 40.5312C22.6458 40 22.8541 39.4896 23.1458 38.9583C23.4825 38.2627 23.9098 37.6147 24.4166 37.0312C24.7905 36.7198 25.2333 36.502 25.7083 36.3958C25.927 36.3958 26.1562 36.25 26.3437 36.2187C26.5312 36.1875 26.8853 36.4062 27.0624 36.9271C27.2849 37.6497 27.3171 38.4175 27.1562 39.1562C26.9062 40.4792 26.5937 41.7917 26.2499 43.0729C26.0842 43.7098 25.8611 44.3304 25.5833 44.9271C25.3333 45.5312 25.0624 46.125 24.7916 46.7187C23.6978 49.0937 22.4791 51.4166 21.427 53.6771L20.8333 54.875C20.7381 55.0642 20.6547 55.259 20.5833 55.4583L20.4895 55.6875C20.4816 55.6829 20.4726 55.6805 20.4635 55.6805C20.4543 55.6805 20.4453 55.6829 20.4374 55.6875C20.3333 55.5625 20.6978 56.0417 20.9166 56.3333L21.7499 57.375C22.3437 58.0729 22.9687 58.7708 23.6041 59.4583L23.5312 59.6146Z" fill="#1E1E1E"/>
<path d="M76.3749 31.25C77.4518 33.9581 78.7333 36.5802 80.2083 39.0937C81.6978 41.6562 83.3333 44.1354 85.1354 46.7083L86.9687 49.3437L87.2812 50.1667L87.427 50.5833L87.5104 50.7812V50.8854H87.3437C87.3901 51.1647 87.3901 51.4498 87.3437 51.7292C87.2645 52.022 87.1527 52.305 87.0103 52.5729C86.6939 53.1404 86.3462 53.6899 85.9687 54.2187L85.4895 54.8854L85.1458 55.3437C80.1978 61.6562 75.1666 67.7292 70.427 74.0937C68.3437 76.9167 66.2603 79.8021 64.3958 82.6875C63.1666 84.5417 62.0103 86.4479 60.8645 88.3333C59.7187 90.2187 58.3853 92.0104 57.3437 93.9062C56.7187 95.0729 56.302 94.8125 56.052 93.4375C55.8467 91.2639 56.1572 89.0726 56.9583 87.0417C59.0719 82.8851 61.441 78.8635 64.052 75C66.7395 71.2187 69.5728 67.5625 72.552 63.9896C74.3229 61.9062 76.0312 59.6042 77.6978 57.3125L81.9374 51.4167C81.9374 51.3333 82.1041 51.2292 82.0416 51.1354L81.8749 50.875C81.8749 50.7708 81.7499 50.6667 81.677 50.5521L81.4687 50.2396L81.1666 49.8125L79.9583 48.1042C79.1666 46.9792 78.3333 45.8333 77.552 44.6146C75.9472 42.2245 74.4863 39.7409 73.177 37.1771C72.7083 36.2604 72.2708 35.3229 71.8541 34.375C71.6354 33.9062 71.4478 33.4271 71.2499 32.9479L71.0312 32.4167L70.9166 32.0625C70.8534 31.8451 70.7661 31.6354 70.6562 31.4375C70.4368 31.3921 70.2135 31.3677 69.9895 31.3646H69.6458H67.8228C66.3853 31.2917 64.9478 31.6458 63.4999 31.5833L59.1666 31.6771L54.8333 31.8437C53.3958 31.8437 51.9583 31.9375 50.5208 32.0104C46.0624 32.25 41.7083 32.8958 37.3124 33.3854C36.3437 33.4896 35.4062 33.6667 34.427 33.7396C33.4478 33.8125 32.7708 33.8333 32.1353 33.8229C31.5856 33.7419 31.0516 33.5768 30.552 33.3333C29.8149 32.9661 29.1892 32.4087 28.7395 31.7187C28.5358 31.4559 28.3479 31.1811 28.177 30.8958C27.9791 30.4479 28.2395 30.0208 28.8645 29.4792C29.7228 28.7229 30.7257 28.1488 31.8124 27.7917C35.8065 26.9957 39.84 26.4116 43.8958 26.0417C45.9791 25.8333 48.0624 25.6632 50.1458 25.5312C52.2291 25.4062 54.3124 25.2292 56.3958 25.2604H60.5624H62.6458C63.3418 25.2449 64.0381 25.2797 64.7291 25.3646C65.4374 25.4792 66.1458 25.625 66.8124 25.7083H68.9583C69.177 25.7083 70.0833 25.7083 70.7083 25.7604C71.057 25.7648 71.405 25.7926 71.7499 25.8437H72.2499C72.4019 25.8764 72.5466 25.9364 72.677 26.0208C72.9521 26.1344 73.1978 26.309 73.3958 26.5312L73.7187 26.8125C73.8228 26.6667 73.5103 27.125 73.9478 26.5L74.0104 26.5833L74.1458 26.7708L75.2395 28.2083L76.1041 30.2083L76.4895 31.1562L76.3749 31.25Z" fill="#1E1E1E"/>
<path d="M55.6458 54.4583C52.7708 54.5833 49.8854 54.7396 47.0104 54.9687C45.9687 55.0416 44.9271 55.2812 43.8854 55.3333C40.1562 55.4791 36.4271 55.6458 32.7083 55.9479C31.875 56.0104 31.0625 56.1354 30.2292 56.1979L27.7604 56.4271C26.7187 56.5312 25.6771 56.6562 24.6354 56.7187H23.8333L23.0208 56.625C22.4687 56.5625 21.9271 56.5 21.3646 56.3854C21.0104 56.3229 20.8125 56.1875 20.8646 56.1354C20.9167 56.0833 21.0833 56.0416 21.3437 55.875C21.7037 55.6581 22.0514 55.4217 22.3854 55.1666L23.0833 54.6666C23.2083 54.5625 23.3437 54.5 23.4792 54.3854L23.8958 54.25C25.9792 53.6458 28.0625 53.0104 30.1458 52.5C32.2292 52.1875 34.4271 51.9479 36.6146 51.8333C39.2187 51.7187 41.8229 51.0625 44.5208 50.7916C47.4375 50.5 50.3646 50.2708 53.2917 50.0729L58.7187 49.7291C61.4479 49.5521 64.2083 49.4896 66.9271 49.3021C67.9687 49.2292 69.0104 49.1041 70.0521 48.9791L71.6354 48.7916C71.8958 48.7916 72.1666 48.7187 72.4271 48.7083H73.2292C73.7083 48.7083 74.1667 48.7083 74.6458 48.7083C76.4062 48.9166 76.9583 49.3229 77.2083 50.3541C77.2809 50.5682 77.3366 50.7876 77.375 51.0104C77.4583 51.6666 76.6875 52.3542 75.4792 52.5937C74.5729 52.8125 73.6667 53.0312 72.7396 53.2708C71.8254 53.4497 70.8993 53.5611 69.9687 53.6041C68.1041 53.75 66.1875 53.875 64.2708 53.9791C61.4167 54.1562 58.5208 54.2812 55.6354 54.5104L55.6458 54.4583Z" fill="#1E1E1E"/>
<path d="M56.3646 42.7813C55.3229 43.8229 54.2812 44.8646 53.2396 45.9063L50 49.0625C49.2083 49.8334 48.5208 50.6979 47.6875 51.4584L46.5312 52.5C45.9456 53.036 45.3148 53.5204 44.6458 53.9479C44.3081 54.1036 43.96 54.2359 43.6041 54.3438C43.2558 54.3774 42.9043 54.3563 42.5625 54.2813C41.8307 54.0625 41.1649 53.6652 40.625 53.125C40.3229 52.875 40.0416 52.6042 39.7604 52.3334L39.1875 51.7084C38.8437 51.3438 38.5208 50.9584 38.2083 50.5834L36.3646 48.3229C35.3229 47 34.1354 45.7396 32.9791 44.5313C32.1889 43.8019 31.4574 43.0112 30.7916 42.1667C30.1458 41.3125 29.5312 40.4167 28.8646 39.5625C28.4583 39.0313 28.6458 38.8959 29.3541 38.9375C30.4697 39.012 31.5614 39.2947 32.5729 39.7709L33.3437 40.1979C33.6053 40.3219 33.8474 40.4833 34.0625 40.6771L35.3125 41.8229C36.1354 42.5938 36.9375 43.375 37.7083 44.1667C39.25 45.75 40.75 47.3854 42.1041 48.9896C42.2254 49.106 42.3242 49.2437 42.3958 49.3958C42.459 49.4842 42.5286 49.5678 42.6041 49.6459C42.6799 49.7296 42.7772 49.7909 42.8854 49.8229C42.9896 49.8229 43.0729 49.7396 43.1666 49.6771C43.2516 49.61 43.3317 49.5369 43.4062 49.4584L43.875 48.9584L45.2291 47.5L51.3333 40.9271L53.2916 38.9375L55.4479 36.8542C56.1219 36.1457 56.8894 35.5324 57.7291 35.0313C58.1202 34.8499 58.5395 34.7372 58.9687 34.6979C59.3747 34.8503 59.749 35.0763 60.0729 35.3646C60.8136 36.0112 61.5096 36.7072 62.1562 37.4479L63.5937 39C65.0833 40.5729 66.7187 41.9375 68.3229 43.4063C68.6771 43.7292 69.0521 44.0104 69.3646 44.3542C69.5208 44.5104 69.6562 44.6667 69.7812 44.8021C69.9062 44.9375 69.9583 45.1146 70.0312 45.25C70.1541 45.4997 70.2384 45.7667 70.2812 46.0417C70.3123 46.2795 70.2909 46.5213 70.2187 46.75C70.1139 47.02 69.9813 47.2784 69.8229 47.5209C69.6771 47.7604 69.5729 48 69.4375 48.1771C69.0729 48.7084 67.7291 48.9063 66.6041 48.1771C66.1695 47.9445 65.7639 47.6613 65.3958 47.3334C65.0104 47.0313 64.6354 46.7084 64.2708 46.3854C63.5312 45.7396 62.8229 45.0625 62.125 44.3646C61.4271 43.6667 60.7396 42.9479 60.0416 42.2813L59 41.1875L58.5937 40.7396C58.5937 40.7396 58.5937 40.7396 58.5937 40.6771C58.5937 40.6146 58.5937 40.6771 58.5208 40.6771L58.3437 40.875L57.9687 41.2604L56.4583 42.8646L56.3646 42.7813Z" fill="#1E1E1E"/>
<path d="M37.5 63.5417C37.9583 63.1979 38.4166 62.875 38.8437 62.5C39 62.375 39.0833 62.1875 39.25 62.0729C39.8229 61.6459 40.4375 61.2604 40.9791 60.8229C41.2061 60.6196 41.3933 60.3759 41.5312 60.1042C41.7187 59.7604 41.7812 59.3229 42.2812 59.2188C42.5937 59.1459 44.8333 61.1771 44.5937 61.6042C44.1493 62.3424 43.487 62.9247 42.6979 63.2709C42.1875 63.4896 41.9791 63.9792 41.6562 64.3125C41.3333 64.6459 40.8333 65.0521 40.427 65.4167C40.0208 65.7813 39.9166 65.8646 39.677 66.1042C39.3128 66.434 38.9652 66.7816 38.6354 67.1459C38.4062 67.4479 38.3229 67.8646 38.0729 68.1875C38.0402 68.2643 37.9943 68.3348 37.9375 68.3959C37.6979 68.6146 37.4791 68.5729 36.9687 68.2709L36.6145 68.0625C36.4502 67.968 36.3083 67.8389 36.1986 67.6843C36.0889 67.5296 36.014 67.353 35.9791 67.1667C35.9165 66.7105 35.9165 66.2479 35.9791 65.7917C36.0887 65.4303 36.2353 65.0812 36.4166 64.75C36.6354 64.2084 37.1458 63.9063 37.5312 63.5104L37.5 63.5417Z" fill="#1E1E1E"/>
<path d="M58.9895 67.3333C58.945 67.6268 58.846 67.9094 58.6978 68.1666L58.3645 68.8646L57.677 70.3021C57.4999 70.4791 57.3957 70.7812 57.1874 70.9583C57.1474 70.9453 57.1089 70.9278 57.0728 70.9062C55.3749 69.9149 53.7953 68.7337 52.3645 67.3854L51.4166 66.4896L50.9374 66.0625L50.5624 65.4896C50.2395 65.0416 49.802 64.75 49.6457 64.5312C49.4192 64.2781 49.2488 63.9799 49.1457 63.6562C49.0832 63.4271 49.5207 62.9687 50.0936 62.6146C50.6666 62.2604 51.4374 61.9062 51.802 62.0833L52.2603 62.3125H52.3228C52.3228 62.3125 52.3228 62.3125 52.3228 62.4062C52.3675 62.7015 52.4626 62.9869 52.6041 63.25C52.688 63.4441 52.8123 63.6181 52.9686 63.7604C53.0832 63.8646 53.1457 63.8437 53.2916 63.9896C53.3251 64.0067 53.3566 64.0277 53.3853 64.0521C53.4686 64.0521 53.5936 64.2396 53.677 64.25C53.7346 64.229 53.7876 64.1972 53.8332 64.1562C53.9305 64.0692 54.0086 63.9627 54.0624 63.8437C54.1537 63.6429 54.2101 63.4281 54.2291 63.2083C54.3303 62.731 54.3303 62.2377 54.2291 61.7604C54.14 61.4331 54.0031 61.1207 53.8228 60.8333C53.677 60.5208 53.5103 60.2083 53.3853 59.875C53.3228 59.7291 53.2186 59.5833 53.2499 59.4271C53.3124 58.8125 53.6874 58.5104 54.7707 58.3854C55.0122 58.3491 55.2557 58.3282 55.4999 58.3229C56.1757 58.2861 56.8497 58.4224 57.4582 58.7187L57.9478 59.0312C58.0724 59.1359 58.1842 59.2547 58.2811 59.3854C58.4711 59.6317 58.6352 59.897 58.7707 60.1771C58.8656 60.4592 58.9387 60.7483 58.9895 61.0416V61.2604L59.052 61.6979L59.1561 62.5625C59.3138 64.1697 59.3138 65.7885 59.1561 67.3958L58.9895 67.3333Z" fill="#1E1E1E"/>
<path d="M34.927 19.875C35.2499 19.875 35.0103 20.2812 34.4686 21C34.1981 21.3217 33.8823 21.6024 33.5311 21.8333C33.2973 21.9068 33.0564 21.9557 32.8124 21.9792C32.2479 21.7261 31.6984 21.4409 31.1666 21.125C30.8095 20.9274 30.4974 20.6578 30.2499 20.3333C29.7291 19.7083 29.2082 19.1042 28.6874 18.4792C28.5781 18.3296 28.5002 18.1596 28.4582 17.9792C28.311 17.3676 27.9973 16.8088 27.552 16.3646C27.4895 16.2812 27.4478 16.1771 27.2811 16.1771C27.1145 16.1771 26.1041 14.7292 26.0936 14.4792C26.0128 13.8641 25.9641 13.2452 25.9478 12.625C25.9478 12.5417 25.8749 12.4792 25.9478 12.3437C26.0213 12.2591 26.0684 12.1548 26.0832 12.0437C26.098 11.9327 26.0799 11.8197 26.0311 11.7187C25.9709 11.4699 25.9429 11.2143 25.9478 10.9583C25.9899 10.788 26.0603 10.6261 26.1561 10.4792C26.2291 10.3438 26.6457 10.2396 26.6978 10.25C26.7499 10.2604 27.0207 10.1354 27.1874 10.0625L27.3541 10C27.6166 10.0807 27.8711 10.1853 28.1145 10.3125C28.3913 10.4202 28.6625 10.5419 28.927 10.6771C28.927 10.6771 29.2707 10.9896 29.677 11.2917C30.0832 11.5937 30.3749 11.9792 30.4686 12.0312C30.5624 12.0833 30.552 12.2396 30.5624 12.3542C30.5728 12.4687 31.677 13.3958 31.7082 13.3958C31.8436 13.6562 32.1353 13.8229 32.0207 14.2604C32.0207 14.3542 32.0207 14.3854 32.0832 14.4375C32.3963 14.8508 32.6553 15.3024 32.8541 15.7812C32.9924 16.0057 33.1492 16.2182 33.3228 16.4167C33.3228 16.4167 33.3228 16.5208 33.3228 16.5729C33.3228 16.625 33.3228 16.7187 33.3749 16.7604C33.7039 17.2891 34.088 17.7814 34.5207 18.2292C34.6457 18.3125 34.7603 19.1042 34.9061 19.1875C35.052 19.2708 34.802 19.875 34.927 19.875Z" fill="#1E1E1E"/>
<path d="M64.802 16.7396C64.8958 17.0625 64.4062 17.0208 63.5729 16.7396C63.1982 16.5809 62.8475 16.3706 62.5312 16.1146C62.3935 15.9197 62.2716 15.7142 62.1666 15.5C62.1666 15.3958 62.302 14.1354 62.3229 13.6875C62.341 13.2763 62.4401 12.8728 62.6145 12.5C62.9479 11.75 63.2395 10.9792 63.5625 10.2292C63.6346 10.0543 63.745 9.89767 63.8854 9.77083C64.3564 9.32992 64.6893 8.76181 64.8437 8.13542C64.8437 8.03125 64.9479 7.94792 64.8437 7.79167C64.9213 7.08225 65.1717 6.40269 65.5729 5.8125L66.9166 4.59375C66.9791 4.54167 66.9166 4.4375 67.1562 4.44792C67.2666 4.47189 67.3818 4.45699 67.4824 4.40574C67.583 4.35448 67.6628 4.27002 67.7083 4.16667C67.8552 3.95881 68.0346 3.77592 68.2395 3.625C68.4176 3.54859 68.6084 3.50619 68.802 3.5C69.055 3.54732 69.2916 3.65847 69.4895 3.82292C69.6041 4 69.875 4.03125 70.0937 4.125L70.3125 4.22917C70.5341 4.82928 70.6742 5.45639 70.7291 6.09375C70.7291 6.09375 70.6145 6.60417 70.5 7.13542C70.3854 7.66667 70.2083 8.17708 70.2083 8.3125C70.2083 8.44792 70.052 8.5 69.9583 8.58333C69.8645 8.66667 69.5208 10.2083 69.4895 10.2604C69.302 10.5417 69.2916 10.8958 68.8437 11.0521C68.75 11.0521 68.7395 11.1563 68.7187 11.2188C68.4819 11.7412 68.1848 12.2342 67.8333 12.6875C67.6902 12.944 67.5616 13.2083 67.4479 13.4792C67.4479 13.5313 67.3541 13.5521 67.3125 13.5938C67.2708 13.6354 67.1875 13.6771 67.1666 13.7396C66.8152 14.3447 66.5088 14.9749 66.25 15.625C66.25 15.7917 65.5 16.2917 65.4583 16.4896C65.4166 16.6875 64.7604 16.6667 64.802 16.7396Z" fill="#1E1E1E"/>
<path d="M54.1666 43.9375L51.9166 46.1875C51.6457 46.4688 51.4166 46.7917 51.1457 47.0625C50.177 48.0417 49.1874 49.0104 48.2499 50.0104C47.8332 50.4583 47.4478 50.9375 47.0728 51.4167C46.6238 52.1128 46.0217 52.6971 45.3124 53.125C45.0311 53.2709 44.9374 52.9479 44.8645 52.5521C44.7146 52.1453 44.7146 51.6985 44.8645 51.2917C45.2475 50.6142 45.7052 49.9818 46.2291 49.4063C46.7606 48.7906 47.3239 48.2029 47.9166 47.6459C48.5789 46.9298 49.198 46.175 49.7707 45.3854C50.4582 44.5521 51.1666 43.7396 51.8541 42.9375L53.2186 41.4792C53.9061 40.7396 54.6249 40.0208 55.302 39.2604C55.8124 38.6667 56.2291 38 56.7707 37.3646C56.8957 37.2292 56.9999 37.0729 57.1249 36.9479C57.2181 36.86 57.3283 36.7922 57.4488 36.7486C57.5692 36.7049 57.6973 36.6864 57.8252 36.6942C57.9531 36.7021 58.078 36.736 58.1923 36.794C58.3065 36.8519 58.4077 36.9327 58.4895 37.0313L58.7395 37.2813C58.85 37.4362 58.9084 37.6222 58.9061 37.8125C58.9234 38.0389 58.8914 38.2663 58.8124 38.4792C58.7053 38.7904 58.543 39.0797 58.3332 39.3333C58.1353 39.5729 57.9374 39.8646 57.7186 40.1146C57.2916 40.6146 56.8228 41.1563 56.3436 41.6563L54.1874 43.9792L54.1666 43.9375Z" fill="#1E1E1E"/>
</svg>
