<svg width="100" height="100" viewBox="0 0 100 100" fill="none" xmlns="http://www.w3.org/2000/svg">
<path d="M15.9688 27.0833C15.9688 27.0833 20.6354 21.5208 22.5312 23.1667C24.25 24.6563 24.5312 27.7604 24.5312 27.7604L18.6563 34.0729L15.9688 27.0833Z" fill="#1E1E1E"/>
<path d="M36.6562 16.0312C26.3228 23.2604 19.2812 42.9791 21.1249 46.5208C22.1145 48.427 10.7083 45.0937 10.7083 45.0937L32.5833 14.3854L36.6562 16.0312Z" fill="#1E1E1E"/>
<path d="M28.4375 78.5416C34.9028 76.4028 41.4584 74.5278 48.1042 72.9166C50.5209 72.3333 52.9271 71.6666 55.3959 71.1979C59.6146 70.4062 63.875 69.7916 68.1667 69.3958C69.2084 69.3021 70.25 69.2083 71.375 69.1354L74.3334 68.9583C74.8004 68.9532 75.2666 68.9184 75.7292 68.8541C75.8382 68.8362 75.9437 68.8011 76.0417 68.75C76.0869 68.7111 76.1192 68.6593 76.1341 68.6016C76.149 68.5439 76.1458 68.483 76.125 68.4271L75.8438 67.8021L75.7188 67.5416L75.4271 66.9375L74.8021 65.6979L73.5 63.0937C72.625 61.3646 71.7813 59.6146 70.9479 57.8854C69.9063 55.6354 68.8646 53.3646 67.9584 51.0104C67.5109 49.8202 67.1284 48.6066 66.8125 47.375C66.6375 46.756 66.5258 46.1207 66.4792 45.4791C66.3954 44.8297 66.3537 44.1756 66.3542 43.5208C66.3542 41.8541 67.3021 42.0625 68.5521 43.1354C69.2888 43.7863 69.9845 44.4821 70.6354 45.2187C71.415 46.1812 72.0245 47.2698 72.4375 48.4375C73.5313 51.4687 74.8438 54.5 76.2188 57.5208C76.9132 59.0347 77.6077 60.5451 78.3021 62.0521L79.3438 64.3125L79.4792 64.5937L79.75 65.1146L80.3125 66.2083C80.6875 66.9375 81.0729 67.6562 81.3542 68.375L81.5313 69.3021V70.0729C81.517 70.3216 81.4679 70.567 81.3854 70.8021C81.2907 71.0869 81.1499 71.3544 80.9688 71.5937C80.1771 72.525 79.0589 73.1176 77.8438 73.25C77.125 73.3541 76.4167 73.4479 75.6667 73.4896L74.5625 73.5625H73.9063L71.5 73.6458C65.5625 73.8437 59.5 75.1458 53.5625 76.4583C47.0313 77.9062 40.5417 79.6875 34.125 81.75C32.1459 82.375 30.1875 83.0416 28.2188 83.7083C26.25 84.375 24.7188 84.9896 21.875 86.2396L21.3229 86.4687L19.9063 86.6562L19.1979 86.75C18.9584 86.8541 18.7292 86.6875 18.5417 86.5312C17.8263 85.7832 17.2981 84.8766 17 83.8854C16.8229 83.3541 16.6667 82.8437 16.5313 82.2604L16.2292 81.0208C16.0625 80.25 15.9063 79.4687 15.75 78.6979C15.1667 75.5729 14.7084 72.4479 14.3542 69.4062C13.6185 64.4968 13.2702 59.537 13.3125 54.5729C13.3227 53.4478 13.3992 52.3244 13.5417 51.2083C13.7421 49.6628 14.2867 48.182 15.1354 46.875C15.7013 46.223 16.4666 45.7763 17.3125 45.6041C17.5858 45.5229 17.8642 45.4603 18.1459 45.4166C18.5209 45.4166 18.5834 45.8333 18.7396 46.6354C18.9846 47.6829 19.0445 48.7652 18.9167 49.8333C18.8021 51.7812 18.7292 53.7916 18.75 55.8646C18.7709 57.9375 18.8854 60.0312 19.0625 62.1979C19.4167 66.4791 19.9375 70.875 20.7084 75.1875C21.0313 77.0208 21.4167 78.9375 21.8438 80.6041C21.8438 80.6041 21.8438 80.7083 21.8438 80.6979L22.5 80.5H22.5834L22.7604 80.4375L23.2604 80.2604L24.3021 79.8958C25.6563 79.4062 27.0209 78.9166 28.3854 78.4583L28.4375 78.5416Z" fill="#1E1E1E"/>
<path d="M13.9896 45.3229C13.9302 45.3939 13.8843 45.4751 13.8541 45.5625C13.8541 45.6771 13.9375 45.6979 14 45.7187C14.0864 45.7296 14.1739 45.7296 14.2604 45.7187H14.4687H14.5833L15.0833 45.6042C17.8021 44.9271 20.5937 44.0833 23.4166 43.2396C25.4479 42.625 27.4479 41.8854 29.5 41.2917C36.7656 39.1164 44.1718 37.4424 51.6666 36.2812C55.0241 35.7686 58.4081 35.4487 61.8021 35.3229C64.0084 35.2301 66.2185 35.3347 68.4062 35.6354C69.5162 35.785 70.6107 36.0325 71.6771 36.375C72.76 36.7374 73.8063 37.2012 74.8021 37.7604C76.0208 38.5 75.4271 39.1354 74.0833 39.4896C73.2678 39.7119 72.435 39.8652 71.5937 39.9479C70.5589 40.1161 69.5036 40.1161 68.4687 39.9479C64.4179 39.3864 60.3122 39.3409 56.25 39.8125C52.0833 40.2292 47.9166 40.9583 43.75 41.7604C38.6006 42.9284 33.5284 44.4139 28.5625 46.2083L20.2291 48.9167C18.8125 49.3542 17.3854 49.7812 15.9166 50.1667C14.8442 50.4687 13.7509 50.6915 12.6458 50.8333C11.6933 50.9701 10.7224 50.8954 9.80206 50.6146C9.22146 50.4812 8.70351 50.1542 8.33331 49.6875C8.10481 49.2036 8.00438 48.6692 8.04165 48.1354C8.15852 46.889 8.51206 45.6764 9.08331 44.5625L9.53123 43.6458L9.96873 42.8125L10.6458 41.5937C11.1041 40.7917 11.5833 40 12.0625 39.2187C15.0203 34.547 18.2119 30.0274 21.625 25.6771C24.1533 22.2356 26.8729 18.9387 29.7708 15.8021C30.4375 15.1146 31.0833 14.4271 31.8541 13.7917C34.6666 11.4479 36.1666 11.1979 37.3646 12.0312C37.656 12.1985 37.9254 12.4015 38.1666 12.6354C38.3102 12.8586 38.3776 13.1224 38.3588 13.3871C38.34 13.6518 38.2361 13.9034 38.0625 14.1042C37.556 14.8408 36.9495 15.5034 36.2604 16.0729C33.6509 18.556 31.2147 21.215 28.9687 24.0312C26.5833 26.9271 24.2396 29.9687 21.9791 33.0937C20.3125 35.4167 18.6875 37.7812 17.1458 40.1875C16.3854 41.3854 15.6354 42.5937 14.9479 43.8125L14.4375 44.7292L14.2083 45.1458C14.1816 45.1788 14.1572 45.2136 14.1354 45.25L13.9896 45.3229Z" fill="#1E1E1E"/>
<path d="M60.0938 32.3958L54.8854 28.8021C54.25 28.3646 53.5417 28.0208 52.9063 27.5625C50.6967 25.8683 48.5857 24.0493 46.5834 22.1146C45.7188 21.2292 44.7188 20.5 43.8125 19.6875C42.5581 18.7145 41.5337 17.4768 40.8125 16.0625C40.5834 15.6042 41.1459 15.1875 41.9896 14.9479C42.8839 14.6321 43.8633 14.6581 44.7396 15.0208C45.0521 15.2292 45.375 15.4375 45.7084 15.6146L46.1979 15.9062L46.6146 16.2708C47.1563 16.7708 47.6563 17.3125 48.2709 17.75C49.3125 18.7917 50.4584 19.75 51.5209 20.875C52.1824 21.5231 52.9164 22.0929 53.7084 22.5729L56.0834 24.1042C57.7917 25.2708 59.5417 26.4375 61.2917 27.6042L64.5834 29.75C66.2604 30.7917 67.8334 32.1042 69.4792 33.2187C70.75 34.0937 72.1667 34.75 73.3438 35.7396C73.6216 35.9334 73.8861 36.1457 74.1354 36.375C75.0417 37.2708 75.1771 37.7396 74.8125 38.5417C74.7292 38.7187 74.6667 38.9062 74.5729 39.0729C74.25 39.6042 73.5313 39.6875 72.625 39.3646C71.9688 39.125 71.3542 38.8437 70.6875 38.6146L69.7084 38.25C69.3959 38.125 69.1146 37.9375 68.8125 37.7812C67.6146 37.1562 66.4584 36.4583 65.2604 35.7812C63.4896 34.8125 61.8125 33.6146 60.0521 32.5L60.0938 32.3958Z" fill="#1E1E1E"/>
<path d="M12.5 20.9063C12.5 20.8438 12.5521 20.8021 12.5 20.7292L12.5625 20.5625C12.8954 19.9312 13.328 19.3579 13.8438 18.8646C14.2191 18.5094 14.6311 18.1951 15.0729 17.9271C15.8472 17.4533 16.6673 17.0589 17.5208 16.75C18.1339 16.4855 18.7681 16.2729 19.4167 16.1146C19.7292 16.0521 19.9792 16.0104 20.3438 15.9688C20.7772 15.8954 21.2171 15.8674 21.6563 15.8854C22.4645 15.8895 23.2565 16.1127 23.9479 16.5313C24.2795 16.728 24.5499 17.0129 24.7292 17.3542C24.8018 17.5183 24.8576 17.6893 24.8958 17.8646C24.9457 18.045 24.9771 18.2299 24.9896 18.4167C25.021 18.8223 25.021 19.2298 24.9896 19.6354C24.9896 20.0417 24.9896 20.4688 24.9896 20.6771C24.9755 21.5917 25.0137 22.5064 25.1042 23.4167C25.277 24.5838 25.2418 25.7723 25 26.9271C24.8854 27.2917 24.1875 27.2604 23.4375 26.9896C22.6875 26.7188 21.8438 26.1875 21.6667 25.5313C21.3335 24.4014 21.1616 23.2301 21.1563 22.0521V21.1771V20.7396C21.1563 20.6354 21.1563 20.6563 21.1563 20.6354H21.2188C21.3843 20.5052 21.4986 20.3208 21.5417 20.1146C21.5417 19.8125 21.3021 19.7708 21.0833 19.7708H20.9167H20.6042L19.6875 19.9375C18.9791 20.0544 18.2821 20.2322 17.6042 20.4688C17.2854 20.5807 16.9755 20.7165 16.6771 20.875C16.4358 21.0009 16.2058 21.1472 15.9896 21.3125C15.8867 21.3981 15.7987 21.5002 15.7292 21.6146C15.6503 21.7687 15.6177 21.9424 15.6354 22.1146C15.6647 22.4188 15.7099 22.7213 15.7709 23.0208C16.0669 24.4419 16.4816 25.8357 17.0104 27.1875C17.4797 28.19 18.0597 29.1369 18.7396 30.0104C18.8646 30.2083 19.0417 30.3646 19.1667 30.5625C19.3613 30.8062 19.4512 31.1172 19.4167 31.4271C19.3195 31.7441 19.1481 32.0334 18.9167 32.2708C18.7813 32.4375 18.6667 32.6042 18.5313 32.7604C18.4321 32.8827 18.3066 32.9808 18.1641 33.0476C18.0215 33.1143 17.8657 33.1479 17.7083 33.1458C17.3277 33.1378 16.9609 33.002 16.6667 32.7604C15.0164 31.1376 13.7896 29.1345 13.0938 26.9271C12.7914 26.1085 12.5614 25.265 12.4063 24.4063C12.3229 23.9792 12.25 23.5104 12.1979 23.0208V22.6146C12.1769 22.4277 12.1769 22.239 12.1979 22.0521C12.2013 21.6664 12.2467 21.2821 12.3334 20.9063H12.5Z" fill="#1E1E1E"/>
<path d="M28.8646 61.6041C29.5208 62.302 39.4583 59.3958 40.0208 59.1145C40.5833 58.8333 39.2812 51.7395 38.2916 49.677C37.75 48.5416 27.3646 50.4791 27.3646 50.4791C27 50.5416 27.3854 60.052 28.8646 61.6041Z" fill="#1E1E1E"/>
<path d="M59.9896 56.3333C59.5833 57.1979 49.2291 57.5313 48.6146 57.4479C48 57.3646 47.0104 50.2083 47.3125 47.9167C47.4687 46.6667 57.9479 45.2708 57.9479 45.2708C58.3333 45.2396 60.9062 54.3958 59.9896 56.3333Z" fill="#1E1E1E"/>
<path d="M76.5416 73.0104C80.0962 72.0247 83.7023 71.2353 87.3437 70.6458C87.7499 70.5625 88.1458 70.4791 88.3853 70.4062H88.5208L88.5937 70.5625L88.6978 70.8125C88.8228 71.125 89.052 71.5 89.1562 71.7083C89.2191 71.8322 89.2922 71.9507 89.3749 72.0625C89.4302 72.1575 89.4929 72.2481 89.5624 72.3333L89.7395 72.5312C89.7849 72.5733 89.8337 72.6116 89.8853 72.6458C90.0728 72.75 89.9791 72.6458 89.7395 72.802C89.684 72.8353 89.6317 72.8737 89.5833 72.9166L88.052 74.3437V74.2812L87.9062 74.2083L87.6249 74.0416C87.4856 73.9816 87.343 73.9295 87.1978 73.8854C85.734 73.4345 84.2179 73.1753 82.6874 73.1145C80.1207 73.0612 77.5531 73.169 74.9999 73.4375C65.8651 74.1909 56.7943 75.5832 47.8541 77.6041C43.8541 78.4791 39.8958 79.5833 36.0312 80.8125C33.5624 81.6354 31.0624 82.3645 28.5833 83.1354L24.8541 84.302L22.9166 84.8541C22.302 85.052 21.6458 85.177 21.0208 85.375C19.4374 85.7812 19.5103 85.4895 20.5103 84.3333C22.1094 82.458 24.0727 80.9271 26.2812 79.8333C27.5103 79.2291 28.7499 78.6354 29.9895 78.0729L31.8645 77.2291L33.7916 76.5625C36.3749 75.6875 38.9999 74.9062 41.5833 74.1666C46.8276 72.6682 52.1658 71.5198 57.5624 70.7291C64.0416 69.8229 70.6978 68.4166 77.5207 68.0625C79.422 67.9531 81.3279 67.9531 83.2291 68.0625C85.3034 68.1267 87.3539 68.5241 89.302 69.2395L90.1458 69.677L90.5624 69.8958C90.6978 69.9895 90.8437 70.1145 90.9895 70.2291L91.4062 70.5833L91.6666 70.8333L91.7708 70.9166L91.9791 71.177L92.0833 71.3229L92.2187 71.5625C92.3204 71.7485 92.3941 71.9486 92.4374 72.1562C92.4846 72.4215 92.4846 72.693 92.4374 72.9583C92.4159 73.2258 92.3452 73.4871 92.2291 73.7291C92.0794 74.0552 91.8629 74.3462 91.5937 74.5833C91.4495 74.7058 91.2963 74.8173 91.1353 74.9166C90.7912 75.1169 90.4239 75.2743 90.0416 75.3854C89.7603 75.4791 89.5103 75.5416 89.2603 75.6041C88.7603 75.7187 88.302 75.8229 87.8437 75.9062C86.0208 76.2708 84.2812 76.6041 82.552 76.9479C78.2906 77.8467 74.1307 79.1729 70.1353 80.9062C65.8408 82.7843 61.8214 85.2373 58.1874 88.1979L58.3645 88.0208C58.1593 87.8205 57.9281 87.6488 57.677 87.5104C57.5901 87.4478 57.4906 87.4051 57.3853 87.3854C57.335 87.3661 57.2794 87.3661 57.2291 87.3854C57.2812 87.3444 57.3149 87.2845 57.3228 87.2187C57.4286 86.97 57.4954 86.7065 57.5208 86.4375V86.177H57.6353H57.8958C58.2916 86.177 58.7603 86.052 59.2083 85.9583C60.1249 85.7708 61.0624 85.5312 61.9895 85.2916C67.0312 83.9895 71.9166 82.302 77.1457 81.2395C78.302 81.0104 79.4374 80.7604 80.6666 80.6354C82.3813 80.3523 84.1395 80.5027 85.7812 81.0729C86.3135 81.2998 86.7794 81.6583 87.1353 82.1145C87.4151 82.4875 87.5684 82.94 87.5728 83.4062C87.6078 83.7676 87.5315 84.1311 87.3541 84.4479C87.0416 84.8333 86.5208 84.7604 86.0208 84.927C85.6978 85.0129 85.3654 85.0584 85.0312 85.0625L83.4062 85.1562C81.3591 85.3543 79.3293 85.7024 77.3332 86.1979C75.2499 86.7083 73.0833 87.2395 70.9062 87.9062L64.3333 89.5833C63.1978 89.8958 62.0624 90.2083 60.8541 90.4895C60.2395 90.6354 59.6458 90.7812 58.8958 90.8958C58.3976 90.9863 57.8914 91.0247 57.3853 91.0104C57.2642 91.024 57.1419 91.024 57.0208 91.0104C56.8599 90.9946 56.6999 90.9702 56.5416 90.9375C56.2746 90.8674 56.0134 90.7768 55.7603 90.6666C55.4967 90.5476 55.2484 90.3972 55.0208 90.2187C54.753 90.0119 54.5177 89.7661 54.3228 89.4895C54.0506 89.1086 53.8494 88.6816 53.7291 88.2291C53.6191 87.7141 53.6191 87.1816 53.7291 86.6666C53.7492 86.5346 53.7841 86.4053 53.8333 86.2812C53.9113 85.9813 54.0231 85.6913 54.1666 85.4166L54.302 85.2187C54.3853 85.0937 54.4895 84.9583 54.5833 84.8437L54.7603 84.6354L54.9999 84.427L56.0416 83.5416C62.1122 78.714 69.0592 75.1061 76.4999 72.9166L76.5416 73.0104Z" fill="#1E1E1E"/>
</svg>
