<svg width="100" height="100" viewBox="0 0 100 100" fill="none" xmlns="http://www.w3.org/2000/svg">
<path d="M13.0172 39.1992C12.7192 38.9726 13.081 38.2929 13.7621 37.2631C14.0842 36.8155 14.4444 36.4809 14.8263 36.2745C15.0904 36.3216 15.3509 36.4252 15.6032 36.5835C15.7415 36.6865 16.827 38.9726 17.242 39.7346C17.5989 40.4191 17.8654 41.2597 18.0189 42.1856C18.3594 43.9774 18.7319 45.7075 19.0299 47.4993C19.1011 47.9031 19.1194 48.3348 19.0831 48.7557C19.0008 50.2033 19.1184 51.6673 19.4236 52.9984C19.4236 53.225 19.4236 53.4721 19.6684 53.6163C20.14 55.0136 20.3948 56.6432 20.4027 58.3121C20.1686 59.6921 19.8706 61.0514 19.6258 62.4313C19.6258 62.6373 19.6258 62.8021 19.4556 63.008C18.998 63.4817 19.0831 63.8524 19.0299 64.2644C18.8953 64.8501 18.7313 65.4089 18.5404 65.9326C18.3763 66.1681 18.2018 66.3748 18.0189 66.5505C17.8063 66.7054 17.5718 66.7054 17.3591 66.5505C17.2101 66.324 16.976 66.5505 16.7844 66.5505C16.7171 66.5609 16.6495 66.5609 16.5822 66.5505C16.5184 66.5505 16.1672 65.8502 15.7096 65.1912C15.3633 64.8178 15.0593 64.3135 14.8157 63.7083C14.7732 63.4895 14.7234 63.2762 14.6667 63.0698L14.3368 61.7105C14.2003 61.2563 14.076 60.7888 13.9643 60.31C13.9237 60.0201 13.8703 59.7376 13.8047 59.4655C13.7408 59.239 13.8047 58.9712 13.9005 58.7241C13.9962 58.4769 13.3152 55.5523 13.3045 55.4287C13.3045 54.7491 13.0917 54.1518 13.4322 53.3691C13.4533 53.3082 13.4645 53.2365 13.4645 53.1632C13.4645 53.0899 13.4533 53.0182 13.4322 52.9572C13.307 51.7998 13.257 50.6167 13.2832 49.4353C13.2373 48.85 13.1698 48.2718 13.081 47.7053C13.081 47.7053 13.081 47.4581 13.081 47.3345C13.1009 47.1929 13.1009 47.0436 13.081 46.902C12.9695 45.5022 12.795 44.1239 12.5596 42.7828C12.5596 42.4945 12.7298 40.7232 12.6234 40.4349C12.517 40.1466 13.1342 39.3021 13.0172 39.1992Z" fill="#1E1E1E"/>
<path d="M60.0188 39.1992C59.7581 38.9726 60.0747 38.2929 60.6706 37.2631C60.9524 36.8155 61.2676 36.4809 61.6018 36.2745C61.8329 36.3216 62.0608 36.4252 62.2816 36.5835C62.4026 36.6865 63.3524 38.9726 63.7156 39.7346C64.0278 40.4191 64.261 41.2597 64.3953 42.1856C64.6933 43.9774 65.0192 45.7075 65.2799 47.4993C65.3423 47.9031 65.3583 48.3348 65.3265 48.7557C65.2545 50.2033 65.3573 51.6673 65.6245 52.9984C65.6245 53.225 65.6245 53.4721 65.8386 53.6163C66.2513 55.0136 66.4743 56.6432 66.4812 58.3121C66.2763 59.6921 66.0156 61.0514 65.8014 62.4313C65.8014 62.6373 65.8014 62.8021 65.6524 63.008C65.252 63.4817 65.3265 63.8524 65.2799 64.2644C65.1622 64.8501 65.0187 65.4089 64.8516 65.9326C64.7081 66.1681 64.5554 66.3748 64.3953 66.5505C64.2093 66.7054 64.0041 66.7054 63.818 66.5505C63.6876 66.324 63.4828 66.5505 63.3152 66.5505C63.2563 66.5609 63.1971 66.5609 63.1382 66.5505C63.0824 66.5505 62.7751 65.8502 62.3747 65.1912C62.0717 64.8178 61.8057 64.3135 61.5925 63.7083C61.5553 63.4895 61.5118 63.2762 61.4621 63.0698L61.1735 61.7105C61.054 61.2563 60.9453 60.7888 60.8476 60.31C60.812 60.0201 60.7653 59.7376 60.7079 59.4655C60.652 59.239 60.7079 58.9712 60.7917 58.7241C60.8755 58.4769 60.2795 55.5523 60.2702 55.4287C60.2702 54.7491 60.084 54.1518 60.382 53.3691C60.4004 53.3082 60.4102 53.2365 60.4102 53.1632C60.4102 53.0899 60.4004 53.0182 60.382 52.9572C60.2724 51.7998 60.2286 50.6167 60.2516 49.4353C60.2114 48.85 60.1523 48.2718 60.0747 47.7053C60.0747 47.7053 60.0747 47.4581 60.0747 47.3345C60.0921 47.1929 60.0921 47.0436 60.0747 46.902C59.9771 45.5022 59.8244 44.1239 59.6184 42.7828C59.6184 42.4945 59.7674 40.7232 59.6743 40.4349C59.5812 40.1466 60.1212 39.3021 60.0188 39.1992Z" fill="#1E1E1E"/>
<path d="M83.6054 39.1992C83.3075 38.9726 83.6693 38.2929 84.3504 37.2631C84.6724 36.8155 85.0326 36.4809 85.4146 36.2745C85.6786 36.3216 85.9392 36.4252 86.1914 36.5835C86.3298 36.6865 87.4153 38.9726 87.8303 39.7346C88.1872 40.4191 88.4536 41.2597 88.6072 42.1856C88.9477 43.9774 89.3202 45.7075 89.6181 47.4993C89.6894 47.9031 89.7077 48.3348 89.6714 48.7557C89.5891 50.2033 89.7066 51.6673 90.0119 52.9984C90.0119 53.225 90.0119 53.4721 90.2567 53.6163C90.7283 55.0136 90.9831 56.6432 90.991 58.3121C90.7568 59.6921 90.4589 61.0514 90.2141 62.4313C90.2141 62.6373 90.2141 62.8021 90.0438 63.008C89.5862 63.4817 89.6714 63.8524 89.6181 64.2644C89.4835 64.8501 89.3196 65.4089 89.1286 65.9326C88.9646 66.1681 88.7901 66.3748 88.6072 66.5505C88.3945 66.7054 88.16 66.7054 87.9474 66.5505C87.7984 66.324 87.5642 66.5505 87.3727 66.5505C87.3054 66.5609 87.2378 66.5609 87.1705 66.5505C87.1066 66.5505 86.7555 65.8502 86.2979 65.1912C85.9516 64.8178 85.6476 64.3135 85.4039 63.7083C85.3614 63.4895 85.3117 63.2762 85.2549 63.0698L84.925 61.7105C84.7886 61.2563 84.6642 60.7888 84.5526 60.31C84.512 60.0201 84.4586 59.7376 84.3929 59.4655C84.3291 59.239 84.3929 58.9712 84.4887 58.7241C84.5845 58.4769 83.9034 55.5523 83.8928 55.4287C83.8928 54.7491 83.6799 54.1518 84.0205 53.3691C84.0415 53.3082 84.0528 53.2365 84.0528 53.1632C84.0528 53.0899 84.0415 53.0182 84.0205 52.9572C83.8953 51.7998 83.8452 50.6167 83.8715 49.4353C83.8256 48.85 83.758 48.2718 83.6693 47.7053C83.6693 47.7053 83.6693 47.4581 83.6693 47.3345C83.6892 47.1929 83.6892 47.0436 83.6693 46.902C83.5577 45.5022 83.3832 44.1239 83.1478 42.7828C83.1478 42.4945 83.3181 40.7232 83.2117 40.4349C83.1053 40.1466 83.7225 39.3021 83.6054 39.1992Z" fill="#1E1E1E"/>
<path d="M36.4894 39.1992C36.2287 38.9726 36.5453 38.2929 37.1412 37.2631C37.423 36.8155 37.7382 36.4809 38.0724 36.2745C38.3034 36.3216 38.5314 36.4252 38.7521 36.5835C38.8732 36.6865 39.823 38.9726 40.1862 39.7346C40.4984 40.4191 40.7316 41.2597 40.8659 42.1856C41.1639 43.9774 41.4898 45.7075 41.7505 47.4993C41.8129 47.9031 41.8289 48.3348 41.7971 48.7557C41.7251 50.2033 41.8279 51.6673 42.0951 52.9984C42.0951 53.225 42.0951 53.4721 42.3092 53.6163C42.7219 55.0136 42.9448 56.6432 42.9517 58.3121C42.7469 59.6921 42.4861 61.0514 42.272 62.4313C42.272 62.6373 42.272 62.8021 42.123 63.008C41.7226 63.4817 41.7971 63.8524 41.7505 64.2644C41.6327 64.8501 41.4893 65.4089 41.3222 65.9326C41.1787 66.1681 41.026 66.3748 40.8659 66.5505C40.6798 66.7054 40.4747 66.7054 40.2886 66.5505C40.1582 66.324 39.9534 66.5505 39.7857 66.5505C39.7269 66.5609 39.6677 66.5609 39.6088 66.5505C39.553 66.5505 39.2457 65.8502 38.8453 65.1912C38.5422 64.8178 38.2763 64.3135 38.0631 63.7083C38.0259 63.4895 37.9823 63.2762 37.9327 63.0698L37.644 61.7105C37.5246 61.2563 37.4158 60.7888 37.3181 60.31C37.2826 60.0201 37.2359 59.7376 37.1785 59.4655C37.1226 59.239 37.1785 58.9712 37.2623 58.7241C37.3461 58.4769 36.7501 55.5523 36.7408 55.4287C36.7408 54.7491 36.5546 54.1518 36.8526 53.3691C36.871 53.3082 36.8808 53.2365 36.8808 53.1632C36.8808 53.0899 36.871 53.0182 36.8526 52.9572C36.743 51.7998 36.6992 50.6167 36.7222 49.4353C36.682 48.85 36.6229 48.2718 36.5453 47.7053C36.5453 47.7053 36.5453 47.4581 36.5453 47.3345C36.5627 47.1929 36.5627 47.0436 36.5453 46.902C36.4476 45.5022 36.295 44.1239 36.089 42.7828C36.089 42.4945 36.238 40.7232 36.1449 40.4349C36.0517 40.1466 36.5918 39.3021 36.4894 39.1992Z" fill="#1E1E1E"/>
<path d="M29.7484 75.3951C29.9608 76.2853 29.3216 77.0392 28.2005 77.712C27.6825 77.9248 27.142 77.9035 26.687 77.6522C26.441 77.1982 26.2276 76.717 26.0489 76.213C25.9672 75.9055 25.7722 71.1959 25.5839 69.6436C25.4446 68.1279 25.3883 66.5901 25.4151 65.0398C25.41 61.9046 25.3033 58.7905 25.1295 55.6977C25.1033 55.0085 25.1239 54.3106 25.1911 53.6107C25.4163 51.1957 25.3666 48.7982 25.0432 46.4853C25.0406 46.0763 24.9448 45.6904 24.766 45.3687C24.444 44.1621 24.2265 42.9043 24.1169 41.6136C23.928 40.3181 23.8037 39.0006 23.7446 37.6676C23.8454 35.5393 23.7633 33.4705 23.7766 31.3462C23.7792 31.0445 23.6615 30.7685 23.8437 30.4171C23.9901 30.0941 24.0812 29.746 24.1109 29.3961C24.1406 29.0462 24.1082 28.7024 24.0159 28.3877C23.912 27.5054 23.853 26.6094 23.8391 25.7046C23.9031 25.1846 24.0289 24.6686 24.2125 24.1728C24.3639 23.7034 25.154 23.5497 25.2474 23.634C25.571 23.9121 25.8629 23.4343 26.1787 23.2561C26.2859 23.1871 26.3968 23.1291 26.5101 23.0829C27.0461 23.7683 27.5137 24.5287 27.9054 25.3517C28.4109 26.2333 28.8549 27.1687 29.2334 28.1498L29.5494 29.333C29.7124 30.0559 29.9667 31.003 30.1709 31.9986L31.0532 36.4994C31.1203 36.9574 31.1203 37.4359 31.0532 37.9149C31.079 38.1286 32.0512 44.193 32.0347 44.4578C32.2194 45.7552 32.175 47.1195 31.9043 48.4673C31.8457 48.7322 31.8416 49.002 31.8923 49.2522C32.0038 51.4778 31.9733 53.7326 31.8012 55.9973C31.749 57.1473 31.7873 58.2835 31.7726 59.4241C31.7497 59.6364 31.7129 59.8485 31.6628 60.0583C31.6089 60.3225 31.572 60.5887 31.5525 60.8544C31.5435 63.5528 31.1941 66.2918 31.2117 68.9879C31.2236 69.6185 30.4926 72.6332 30.4949 73.3471C30.5078 73.7078 29.6715 75.046 29.7484 75.3951Z" fill="#1E1E1E"/>
<path d="M52.3723 74.4554C52.5847 75.3456 51.9455 76.0995 50.8244 76.7723C50.3064 76.9851 49.7659 76.9638 49.3109 76.7125C49.0649 76.2585 48.8515 75.7773 48.6728 75.2733C48.5911 74.9658 48.3961 70.2562 48.2078 68.7039C48.0685 67.1882 48.0122 65.6504 48.039 64.1001C48.0339 60.9649 47.9272 57.8508 47.7534 54.758C47.7272 54.0688 47.7478 53.3709 47.815 52.671C48.0402 50.256 47.9905 47.8585 47.6671 45.5456C47.6645 45.1366 47.5687 44.7507 47.3899 44.429C47.0679 43.2224 46.8504 41.9646 46.7408 40.6739C46.5519 39.3784 46.4276 38.0609 46.3685 36.7279C46.4693 34.5996 46.3872 32.5308 46.4005 30.4065C46.4031 30.1048 46.2854 29.8288 46.4676 29.4774C46.614 29.1544 46.7051 28.8063 46.7348 28.4564C46.7645 28.1065 46.7321 27.7627 46.6398 27.448C46.536 26.5657 46.4769 25.6697 46.463 24.7649C46.527 24.2449 46.6528 23.7289 46.8364 23.2331C46.9878 22.7637 47.7779 22.61 47.8713 22.6943C48.1949 22.9724 48.4868 22.4946 48.8026 22.3164C48.9098 22.2474 49.0207 22.1894 49.134 22.1432C49.67 22.8286 50.1377 23.589 50.5293 24.412C51.0348 25.2936 51.4788 26.229 51.8573 27.2101L52.1733 28.3933C52.3363 29.1162 52.5906 30.0633 52.7948 31.0589L53.6771 35.5598C53.7442 36.0177 53.7442 36.4962 53.6771 36.9752C53.7029 37.1889 54.6751 43.2533 54.6586 43.5181C54.8433 44.8155 54.7989 46.1798 54.5282 47.5276C54.4696 47.7925 54.4655 48.0623 54.5162 48.3125C54.6277 50.5381 54.5972 52.7929 54.4251 55.0576C54.3729 56.2076 54.4112 57.3438 54.3965 58.4844C54.3736 58.6967 54.3368 58.9088 54.2867 59.1186C54.2328 59.3828 54.1959 59.649 54.1764 59.9147C54.1674 62.6131 53.818 65.3521 53.8356 68.0482C53.8475 68.6788 53.1165 71.6935 53.1188 72.4074C53.1317 72.7681 52.2954 74.1063 52.3723 74.4554Z" fill="#1E1E1E"/>
<path d="M76.8131 74.4554C77.0255 75.3456 76.3863 76.0995 75.2652 76.7723C74.7472 76.9851 74.2067 76.9638 73.7517 76.7125C73.5057 76.2585 73.2923 75.7773 73.1136 75.2733C73.0319 74.9658 72.8369 70.2562 72.6486 68.7039C72.5093 67.1882 72.4529 65.6504 72.4798 64.1001C72.4747 60.9649 72.368 57.8508 72.1942 54.758C72.168 54.0688 72.1886 53.3709 72.2558 52.671C72.481 50.256 72.4313 47.8585 72.1079 45.5456C72.1053 45.1366 72.0095 44.7507 71.8307 44.429C71.5087 43.2224 71.2912 41.9646 71.1816 40.6739C70.9927 39.3784 70.8684 38.0609 70.8093 36.7279C70.91 34.5996 70.828 32.5308 70.8413 30.4065C70.8439 30.1048 70.7262 29.8288 70.9084 29.4774C71.0548 29.1544 71.1459 28.8063 71.1756 28.4564C71.2053 28.1065 71.1729 27.7627 71.0806 27.448C70.9767 26.5657 70.9177 25.6697 70.9038 24.7649C70.9678 24.2449 71.0936 23.7289 71.2772 23.2331C71.4286 22.7637 72.2187 22.61 72.3121 22.6943C72.6357 22.9724 72.9276 22.4946 73.2434 22.3164C73.3506 22.2474 73.4615 22.1894 73.5748 22.1432C74.1108 22.8286 74.5784 23.589 74.9701 24.412C75.4756 25.2936 75.9196 26.229 76.2981 27.2101L76.6141 28.3933C76.7771 29.1162 77.0314 30.0633 77.2356 31.0589L78.1179 35.5598C78.185 36.0177 78.185 36.4962 78.1179 36.9752C78.1437 37.1889 79.1159 43.2533 79.0994 43.5181C79.2841 44.8155 79.2397 46.1798 78.969 47.5276C78.9104 47.7925 78.9063 48.0623 78.957 48.3125C79.0685 50.5381 79.038 52.7929 78.8659 55.0576C78.8137 56.2076 78.852 57.3438 78.8373 58.4844C78.8143 58.6967 78.7776 58.9088 78.7275 59.1186C78.6736 59.3828 78.6367 59.649 78.6172 59.9147C78.6082 62.6131 78.2588 65.3521 78.2764 68.0482C78.2883 68.6788 77.5573 71.6935 77.5596 72.4074C77.5724 72.7681 76.7362 74.1063 76.8131 74.4554Z" fill="#1E1E1E"/>
</svg>
